<?xml version="1.0" encoding="utf-8" standalone="no"?>
<svg xmlns="http://www.w3.org/2000/svg" xmlns:xlink="http://www.w3.org/1999/xlink" width="500" height="135">
	<!-- Created by: VictronBTLELogger Version 3.20241123.0 Built on: Nov 23 2024 at 11:31:55 -->
	<clipPath id="GraphRegion"><polygon points="80,14 472,14 472,121 80,121" /></clipPath>
	<style>
		text { font-family: sans-serif; font-size: 12px; fill: dimgrey; }
		line { stroke: dimgrey; }
		polygon { fill-opacity: 0.5; }
	</style>
	<rect style="fill-opacity:0;stroke:grey;stroke-width:2" width="500" height="135" />
	<text x="80" y="12">S/V Sola Orion XS (D3:D1:90:54:EB:F0)</text>
	<text style="text-anchor:end" x="472" y="12">2024-11-23 14:00:00</text>
	<text style="fill:blue;text-anchor:middle" x="12" y="50%" transform="rotate(270 12,67)">Voltage In (12.83V)</text>
	<text style="fill:aqua;text-anchor:middle" x="24" y="50%" transform="rotate(270 24,67)">Voltage Out (13.43V)</text>
	<text style="fill:green;text-anchor:middle" x="36" y="50%" transform="rotate(270 36,67)">Current In (0.0A)</text>
	<text style="fill:lime;text-anchor:middle" x="48" y="50%" transform="rotate(270 48,67)">Current Out (0.0A)</text>
	<line x1="78" y1="14" x2="474" y2="14"/>
	<text style="fill:blue;text-anchor:end;dominant-baseline:middle" x="78" y="14">13.45</text>
	<text style="fill:green;dominant-baseline:middle" x="474" y="14">0.0</text>
	<line x1="78" y1="121" x2="474" y2="121"/>
	<text style="fill:blue;text-anchor:end;dominant-baseline:middle" x="78" y="121">12.82</text>
	<text style="fill:green;dominant-baseline:middle" x="474" y="121">0.0</text>
	<line x1="80" y1="14" x2="80" y2="121"/>
	<line x1="472" y1="14" x2="472" y2="121"/>
	<line style="stroke-dasharray:1" x1="78" y1="40" x2="474" y2="40" />
	<text style="fill:blue;text-anchor:end;dominant-baseline:middle" x="78" y="40">13.29</text>
	<text style="fill:green;dominant-baseline:middle" x="474" y="40">0.0</text>
	<line style="stroke-dasharray:1" x1="78" y1="66" x2="474" y2="66" />
	<text style="fill:blue;text-anchor:end;dominant-baseline:middle" x="78" y="66">13.14</text>
	<text style="fill:green;dominant-baseline:middle" x="474" y="66">0.0</text>
	<line style="stroke-dasharray:1" x1="78" y1="92" x2="474" y2="92" />
	<text style="fill:blue;text-anchor:end;dominant-baseline:middle" x="78" y="92">12.98</text>
	<text style="fill:green;dominant-baseline:middle" x="474" y="92">0.0</text>
	<text style="text-anchor:middle" x="84" y="133">Sat</text>
	<line style="stroke-dasharray:1" x1="108" y1="14" x2="108" y2="123" />
	<text style="text-anchor:middle" x="132" y="133">Fri</text>
	<line style="stroke-dasharray:1" x1="156" y1="14" x2="156" y2="123" />
	<text style="text-anchor:middle" x="180" y="133">Thu</text>
	<line style="stroke-dasharray:1" x1="204" y1="14" x2="204" y2="123" />
	<text style="text-anchor:middle" x="228" y="133">Wed</text>
	<line style="stroke-dasharray:1" x1="252" y1="14" x2="252" y2="123" />
	<text style="text-anchor:middle" x="276" y="133">Tue</text>
	<line style="stroke-dasharray:1" x1="300" y1="14" x2="300" y2="123" />
	<text style="text-anchor:middle" x="324" y="133">Mon</text>
	<line style="stroke-dasharray:1" x1="348" y1="14" x2="348" y2="123" />
	<text style="text-anchor:middle" x="372" y="133">Sun</text>
	<line style="stroke:red" x1="396" y1="14" x2="396" y2="123" />
	<text style="text-anchor:middle" x="420" y="133">Sat</text>
	<line style="stroke-dasharray:1" x1="444" y1="14" x2="444" y2="123" />
	<text style="text-anchor:middle" x="468" y="133">Fri</text>
	<polygon style="fill:red;stroke:red;fill-opacity:1;" points="77,121 83,118 83,124" />
	<!-- Amperage -->
	<polyline style="fill:none;stroke:green;clip-path:url(#GraphRegion)" points="81,0 82,0 83,0 84,0 85,0 86,0 87,0 88,0 89,0 90,0 91,0 92,0 93,0 94,0 95,0 96,0 97,0 98,0 99,0 100,0 101,0 102,0 103,0 104,0 105,0 106,0 107,0 108,0 109,0 110,0 111,0 112,0 113,0 114,0 115,0 116,0 117,0 118,0 119,0 120,0 121,0 122,0 123,0 124,0 125,0 126,0 127,0 128,0 129,0 130,0 131,0 132,0 133,0 134,0 135,0 136,0 137,0 138,0 139,0 140,0 141,0 142,0 143,0 144,0 145,0 146,0 147,0 148,0 149,0 150,0 151,0 152,0 153,0 154,0 155,0 156,0 157,0 158,0 159,0 160,0 161,0 162,0 163,0 164,0 165,0 166,0 167,0 168,0 169,0 170,0 171,0 172,0 173,0 174,0 175,0 176,0 177,0 178,0 179,0 180,0 181,0 182,0 183,0 184,0 185,0 186,0 187,0 188,0 189,0 190,0 191,0 192,0 193,0 194,0 195,0 196,0 197,0 198,0 199,0 200,0 201,0 202,0 203,0 204,0 205,0 206,0 207,0 208,0 209,0 210,0 211,0 212,0 213,0 214,0 215,0 216,0 217,0 218,0 219,0 220,0 221,0 222,0 223,0 224,0 225,0 226,0 227,0 228,0 229,0 230,0 231,0 232,0 233,0 234,0 235,0 236,0 237,0 238,0 239,0 240,0 241,0 242,0 243,0 244,0 245,0 246,0 247,0 248,0 249,0 250,0 251,0 252,0 253,0 254,0 255,0 256,0 257,0 258,0 259,0 260,0 261,0 262,0 263,0 264,0 265,0 266,0 267,0 268,0 269,0 270,0 271,0 272,0 273,0 274,0 275,0 276,0 277,0 278,0 279,0 280,0 281,0 282,0 283,0 284,0 285,0 286,0 287,0 288,0 289,0 290,0 291,0 292,0 293,0 294,0 295,0 296,0 297,0 298,0 299,0 300,0 301,0 302,0 303,0 304,0 305,0 306,0 307,0 308,0 309,0 310,0 311,0 312,0 313,0 314,0 315,0 316,0 317,0 318,0 319,0 320,0 321,0 322,0 323,0 324,0 325,0 326,0 327,0 328,0 329,0 330,0 331,0 332,0 333,0 334,0 335,0 336,0 337,0 338,0 339,0 340,0 341,0 342,0 343,0 344,0 345,0 346,0 347,0 348,0 349,0 350,0 351,0 352,0 353,0 354,0 355,0 356,0 357,0 358,0 359,0 360,0 361,0 362,0 363,0 364,0 365,0 366,0 367,0 368,0 369,0 370,0 371,0 372,0 373,0 374,0 375,0 376,0 377,0 378,0 379,0 380,0 381,0 382,0 383,0 384,0 385,0 386,0 387,0 388,0 389,0 390,0 391,0 392,0 393,0 394,0 395,0 396,0 397,0 398,0 399,0 400,0 401,0 402,0 403,0 404,0 405,0 406,0 407,0 408,0 409,0 410,0 411,0 412,0 413,0 414,0 415,0 416,0 417,0 418,0 419,0 420,0 421,0 422,0 423,0 424,0 425,0 426,0 427,0 428,0 429,0 430,0 431,0 432,0 433,0 434,0 435,0 436,0 437,0 438,0 439,0 440,0 441,0 442,0 443,0 444,0 445,0 446,0 447,0 448,0 449,0 450,0 451,0 452,0 453,0 454,0 455,0 456,0 457,0 458,0 459,0 460,0 461,0 462,0 463,0 464,0 465,0 466,0 467,0 468,0 469,0 470,0 471,0 " />
	<!-- Amperage -->
	<polyline style="fill:none;stroke:lime;clip-path:url(#GraphRegion)" points="81,0 82,0 83,0 84,0 85,0 86,0 87,0 88,0 89,0 90,0 91,0 92,0 93,0 94,0 95,0 96,0 97,0 98,0 99,0 100,0 101,0 102,0 103,0 104,0 105,0 106,0 107,0 108,0 109,0 110,0 111,0 112,0 113,0 114,0 115,0 116,0 117,0 118,0 119,0 120,0 121,0 122,0 123,0 124,0 125,0 126,0 127,0 128,0 129,0 130,0 131,0 132,0 133,0 134,0 135,0 136,0 137,0 138,0 139,0 140,0 141,0 142,0 143,0 144,0 145,0 146,0 147,0 148,0 149,0 150,0 151,0 152,0 153,0 154,0 155,0 156,0 157,0 158,0 159,0 160,0 161,0 162,0 163,0 164,0 165,0 166,0 167,0 168,0 169,0 170,0 171,0 172,0 173,0 174,0 175,0 176,0 177,0 178,0 179,0 180,0 181,0 182,0 183,0 184,0 185,0 186,0 187,0 188,0 189,0 190,0 191,0 192,0 193,0 194,0 195,0 196,0 197,0 198,0 199,0 200,0 201,0 202,0 203,0 204,0 205,0 206,0 207,0 208,0 209,0 210,0 211,0 212,0 213,0 214,0 215,0 216,0 217,0 218,0 219,0 220,0 221,0 222,0 223,0 224,0 225,0 226,0 227,0 228,0 229,0 230,0 231,0 232,0 233,0 234,0 235,0 236,0 237,0 238,0 239,0 240,0 241,0 242,0 243,0 244,0 245,0 246,0 247,0 248,0 249,0 250,0 251,0 252,0 253,0 254,0 255,0 256,0 257,0 258,0 259,0 260,0 261,0 262,0 263,0 264,0 265,0 266,0 267,0 268,0 269,0 270,0 271,0 272,0 273,0 274,0 275,0 276,0 277,0 278,0 279,0 280,0 281,0 282,0 283,0 284,0 285,0 286,0 287,0 288,0 289,0 290,0 291,0 292,0 293,0 294,0 295,0 296,0 297,0 298,0 299,0 300,0 301,0 302,0 303,0 304,0 305,0 306,0 307,0 308,0 309,0 310,0 311,0 312,0 313,0 314,0 315,0 316,0 317,0 318,0 319,0 320,0 321,0 322,0 323,0 324,0 325,0 326,0 327,0 328,0 329,0 330,0 331,0 332,0 333,0 334,0 335,0 336,0 337,0 338,0 339,0 340,0 341,0 342,0 343,0 344,0 345,0 346,0 347,0 348,0 349,0 350,0 351,0 352,0 353,0 354,0 355,0 356,0 357,0 358,0 359,0 360,0 361,0 362,0 363,0 364,0 365,0 366,0 367,0 368,0 369,0 370,0 371,0 372,0 373,0 374,0 375,0 376,0 377,0 378,0 379,0 380,0 381,0 382,0 383,0 384,0 385,0 386,0 387,0 388,0 389,0 390,0 391,0 392,0 393,0 394,0 395,0 396,0 397,0 398,0 399,0 400,0 401,0 402,0 403,0 404,0 405,0 406,0 407,0 408,0 409,0 410,0 411,0 412,0 413,0 414,0 415,0 416,0 417,0 418,0 419,0 420,0 421,0 422,0 423,0 424,0 425,0 426,0 427,0 428,0 429,0 430,0 431,0 432,0 433,0 434,0 435,0 436,0 437,0 438,0 439,0 440,0 441,0 442,0 443,0 444,0 445,0 446,0 447,0 448,0 449,0 450,0 451,0 452,0 453,0 454,0 455,0 456,0 457,0 458,0 459,0 460,0 461,0 462,0 463,0 464,0 465,0 466,0 467,0 468,0 469,0 470,0 471,0 " />
	<!-- Voltage -->
	<polyline style="fill:none;stroke:blue;clip-path:url(#GraphRegion)" points="81,119 82,119 83,118 84,118 85,119 86,119 87,119 88,119 89,119 90,119 91,118 92,119 93,119 94,119 95,118 96,119 97,119 98,119 99,119 100,119 101,119 102,119 103,120 104,119 105,119 106,119 107,119 108,119 109,119 110,119 111,119 112,119 113,119 114,119 115,119 116,119 117,119 118,119 119,119 120,119 121,119 122,119 123,119 124,119 125,119 126,119 127,119 128,119 129,119 130,119 131,119 132,118 133,119 134,119 135,119 136,119 137,119 138,119 139,118 140,118 141,118 142,119 143,118 144,119 145,118 146,118 147,118 148,118 149,118 150,118 151,118 152,118 153,118 154,118 155,118 156,119 157,119 158,119 159,119 160,119 161,119 162,119 163,118 164,119 165,119 166,119 167,119 168,121 169,121 170,121 171,121 172,121 173,121 174,121 175,121 176,121 177,121 178,121 179,121 180,119 181,119 182,119 183,119 184,119 185,119 186,119 187,119 188,119 189,119 190,119 191,119 192,119 193,119 194,120 195,120 196,120 197,120 198,120 199,120 200,119 201,120 202,119 203,119 204,120 205,120 206,120 207,120 208,120 209,120 210,120 211,120 212,120 213,120 214,120 215,120 216,120 217,120 218,120 219,119 220,119 221,119 222,119 223,119 224,120 225,119 226,119 227,120 228,120 229,119 230,119 231,119 232,119 233,119 234,119 235,119 236,119 237,119 238,119 239,119 240,119 241,119 242,119 243,119 244,119 245,119 246,119 247,119 248,119 249,119 250,119 251,120 252,119 253,119 254,119 255,119 256,119 257,119 258,119 259,119 260,118 261,119 262,119 263,119 264,119 265,119 266,119 267,119 268,119 269,119 270,119 271,119 272,118 273,118 274,119 275,119 276,119 277,119 278,118 279,118 280,118 281,119 282,119 283,119 284,119 285,119 286,119 287,119 288,119 289,119 290,119 291,118 292,118 293,118 294,118 295,118 296,118 297,118 298,118 299,118 300,118 301,118 302,118 303,118 304,118 305,118 306,118 307,118 308,118 309,118 310,118 311,119 312,118 313,118 314,118 315,118 316,118 317,118 318,118 319,118 320,118 321,118 322,119 323,118 324,118 325,118 326,118 327,118 328,118 329,118 330,118 331,117 332,118 333,118 334,118 335,118 336,119 337,118 338,117 339,117 340,118 341,118 342,118 343,117 344,118 345,118 346,118 347,118 348,118 349,118 350,119 351,119 352,119 353,119 354,119 355,119 356,119 357,118 358,119 359,118 360,118 361,118 362,118 363,118 364,118 365,119 366,119 367,119 368,118 369,119 370,118 371,119 372,119 373,119 374,119 375,119 376,119 377,119 378,119 379,119 380,119 381,119 382,119 383,120 384,119 385,119 386,119 387,119 388,119 389,118 390,118 391,118 392,118 393,118 394,118 395,118 396,118 397,118 398,119 399,119 400,119 401,119 402,119 403,119 404,119 405,119 406,118 407,118 408,119 409,119 410,118 411,119 412,118 413,118 414,118 415,118 416,118 417,118 418,118 419,118 420,118 421,117 422,117 423,117 424,117 425,118 426,118 427,118 428,118 429,118 430,118 431,118 432,119 433,118 434,117 435,117 436,117 437,118 438,118 439,118 440,118 441,118 442,118 443,118 444,118 445,118 446,118 447,118 448,119 449,118 450,118 451,118 452,118 453,118 454,118 455,118 456,119 457,118 458,118 459,118 460,118 461,118 462,118 463,118 464,118 465,118 466,118 467,118 468,118 469,118 470,118 471,118 " />
	<!-- Voltage -->
	<polyline style="fill:none;stroke:aqua;clip-path:url(#GraphRegion)" points="81,18 82,17 83,17 84,17 85,18 86,17 87,16 88,14 89,15 90,15 91,14 92,16 93,17 94,16 95,16 96,16 97,14 98,18 99,17 100,16 101,14 102,14 103,18 104,17 105,18 106,17 107,16 108,15 109,17 110,18 111,16 112,16 113,17 114,17 115,16 116,19 117,17 118,17 119,16 120,18 121,16 122,17 123,16 124,17 125,18 126,17 127,18 128,17 129,15 130,16 131,15 132,14 133,17 134,15 135,14 136,18 137,17 138,16 139,15 140,16 141,15 142,14 143,19 144,18 145,18 146,16 147,17 148,15 149,16 150,17 151,17 152,14 153,15 154,17 155,16 156,18 157,17 158,19 159,18 160,16 161,17 162,17 163,16 164,19 165,18 166,17 167,19 168,19 169,19 170,19 171,19 172,19 173,19 174,19 175,19 176,19 177,19 178,19 179,19 180,15 181,17 182,17 183,16 184,16 185,17 186,17 187,18 188,17 189,17 190,18 191,18 192,17 193,15 194,19 195,18 196,19 197,18 198,17 199,18 200,17 201,15 202,16 203,18 204,18 205,18 206,17 207,15 208,16 209,15 210,17 211,17 212,20 213,20 214,19 215,18 216,16 217,17 218,18 219,14 220,16 221,16 222,16 223,18 224,16 225,16 226,18 227,17 228,16 229,18 230,16 231,17 232,15 233,16 234,16 235,17 236,15 237,17 238,17 239,17 240,17 241,17 242,16 243,18 244,16 245,17 246,18 247,16 248,17 249,15 250,16 251,16 252,17 253,16 254,18 255,16 256,17 257,17 258,21 259,20 260,16 261,21 262,18 263,16 264,16 265,16 266,16 267,17 268,16 269,16 270,17 271,16 272,15 273,17 274,17 275,17 276,18 277,17 278,17 279,16 280,18 281,18 282,17 283,17 284,17 285,17 286,19 287,17 288,19 289,18 290,17 291,18 292,18 293,18 294,19 295,17 296,15 297,14 298,15 299,17 300,16 301,15 302,16 303,18 304,16 305,17 306,15 307,15 308,15 309,15 310,15 311,14 312,15 313,16 314,16 315,17 316,17 317,15 318,16 319,15 320,16 321,15 322,15 323,15 324,18 325,16 326,16 327,17 328,15 329,15 330,14 331,14 332,17 333,17 334,17 335,18 336,16 337,15 338,14 339,16 340,15 341,17 342,17 343,15 344,15 345,16 346,16 347,14 348,16 349,17 350,18 351,18 352,17 353,17 354,17 355,16 356,18 357,15 358,17 359,18 360,15 361,16 362,19 363,17 364,17 365,17 366,19 367,18 368,17 369,17 370,16 371,17 372,18 373,17 374,15 375,17 376,17 377,16 378,18 379,16 380,17 381,16 382,18 383,18 384,19 385,18 386,17 387,17 388,17 389,17 390,16 391,18 392,16 393,15 394,16 395,16 396,16 397,18 398,17 399,15 400,18 401,16 402,17 403,16 404,16 405,16 406,14 407,16 408,16 409,18 410,17 411,16 412,17 413,15 414,17 415,17 416,17 417,15 418,17 419,16 420,17 421,16 422,16 423,15 424,15 425,16 426,17 427,18 428,16 429,15 430,16 431,17 432,18 433,17 434,15 435,15 436,16 437,16 438,17 439,16 440,16 441,16 442,16 443,15 444,16 445,18 446,17 447,16 448,18 449,17 450,17 451,17 452,18 453,16 454,17 455,16 456,15 457,17 458,17 459,17 460,17 461,17 462,17 463,17 464,17 465,17 466,17 467,17 468,17 469,17 470,17 471,17 " />
</svg>
