<?xml version="1.0" encoding="utf-8" standalone="no"?>
<svg xmlns="http://www.w3.org/2000/svg" xmlns:xlink="http://www.w3.org/1999/xlink" width="500" height="135">
	<!-- Created by: VictronBTLELogger Version 3.20241123.0 Built on: Nov 23 2024 at 11:31:55 -->
	<clipPath id="GraphRegion"><polygon points="80,14 472,14 472,121 80,121" /></clipPath>
	<style>
		text { font-family: sans-serif; font-size: 12px; fill: dimgrey; }
		line { stroke: dimgrey; }
		polygon { fill-opacity: 0.5; }
	</style>
	<rect style="fill-opacity:0;stroke:grey;stroke-width:2" width="500" height="135" />
	<text x="80" y="12">S/V Sola Orion XS (D3:D1:90:54:EB:F0)</text>
	<text style="text-anchor:end" x="472" y="12">2024-11-23 14:00:00</text>
	<text style="fill:blue;text-anchor:middle" x="12" y="50%" transform="rotate(270 12,67)">Voltage In (12.83V)</text>
	<text style="fill:aqua;text-anchor:middle" x="24" y="50%" transform="rotate(270 24,67)">Voltage Out (13.43V)</text>
	<text style="fill:green;text-anchor:middle" x="36" y="50%" transform="rotate(270 36,67)">Current In (0.0A)</text>
	<text style="fill:lime;text-anchor:middle" x="48" y="50%" transform="rotate(270 48,67)">Current Out (0.0A)</text>
	<line x1="78" y1="14" x2="474" y2="14"/>
	<text style="fill:blue;text-anchor:end;dominant-baseline:middle" x="78" y="14">13.45</text>
	<text style="fill:green;dominant-baseline:middle" x="474" y="14">0.0</text>
	<line x1="78" y1="121" x2="474" y2="121"/>
	<text style="fill:blue;text-anchor:end;dominant-baseline:middle" x="78" y="121">12.82</text>
	<text style="fill:green;dominant-baseline:middle" x="474" y="121">0.0</text>
	<line x1="80" y1="14" x2="80" y2="121"/>
	<line x1="472" y1="14" x2="472" y2="121"/>
	<line style="stroke-dasharray:1" x1="78" y1="40" x2="474" y2="40" />
	<text style="fill:blue;text-anchor:end;dominant-baseline:middle" x="78" y="40">13.29</text>
	<text style="fill:green;dominant-baseline:middle" x="474" y="40">0.0</text>
	<line style="stroke-dasharray:1" x1="78" y1="66" x2="474" y2="66" />
	<text style="fill:blue;text-anchor:end;dominant-baseline:middle" x="78" y="66">13.13</text>
	<text style="fill:green;dominant-baseline:middle" x="474" y="66">0.0</text>
	<line style="stroke-dasharray:1" x1="78" y1="92" x2="474" y2="92" />
	<text style="fill:blue;text-anchor:end;dominant-baseline:middle" x="78" y="92">12.98</text>
	<text style="fill:green;dominant-baseline:middle" x="474" y="92">0.0</text>
	<text style="text-anchor:middle" x="117" y="133">Week 47</text>
	<line style="stroke-dasharray:1" x1="159" y1="14" x2="159" y2="123" />
	<text style="text-anchor:middle" x="201" y="133">Week 46</text>
	<line style="stroke-dasharray:1" x1="243" y1="14" x2="243" y2="123" />
	<text style="text-anchor:middle" x="285" y="133">Week 45</text>
	<line style="stroke-dasharray:1" x1="327" y1="14" x2="327" y2="123" />
	<line style="stroke:red" x1="351" y1="14" x2="351" y2="123" />
	<text style="text-anchor:middle" x="369" y="133">Week 44</text>
	<line style="stroke-dasharray:1" x1="411" y1="14" x2="411" y2="123" />
	<text style="text-anchor:middle" x="453" y="133">Week 43</text>
	<polygon style="fill:red;stroke:red;fill-opacity:1;" points="77,121 83,118 83,124" />
	<!-- Amperage -->
	<polyline style="fill:none;stroke:green;clip-path:url(#GraphRegion)" points="81,0 82,0 83,0 84,0 85,0 86,0 87,0 88,0 89,0 90,0 91,0 92,0 93,0 94,0 95,0 96,0 97,0 98,0 99,0 100,0 101,0 102,0 103,0 104,0 105,0 106,0 107,0 108,0 109,0 110,0 111,0 112,0 113,0 114,0 115,0 116,0 117,0 118,0 119,0 120,0 121,0 122,0 123,0 124,0 125,0 126,0 127,0 128,0 129,0 130,0 131,0 132,0 133,0 134,0 135,0 136,0 137,0 138,0 139,0 140,0 141,0 142,0 143,0 144,0 145,0 146,0 147,0 148,0 149,0 150,0 151,0 152,0 153,0 154,0 155,0 156,0 157,0 158,0 159,0 160,0 161,0 162,0 163,0 164,0 165,0 166,0 167,0 168,0 169,0 170,0 171,0 172,0 173,0 174,0 175,0 176,0 177,0 178,0 179,0 180,0 181,0 182,0 183,0 184,0 185,0 186,0 187,0 188,0 189,0 190,0 191,0 192,0 193,0 194,0 195,0 196,0 197,0 198,0 199,0 200,0 201,0 202,0 203,0 204,0 205,0 206,0 207,0 208,0 209,0 210,0 211,0 212,0 213,0 214,0 215,0 216,0 217,0 218,0 219,0 220,0 221,0 222,0 223,0 224,0 225,0 226,0 227,0 228,0 229,0 230,0 231,0 232,0 233,0 234,0 235,0 236,0 237,0 238,0 239,0 240,0 241,0 242,0 243,0 244,0 245,0 246,0 247,0 248,0 249,0 250,0 251,0 252,0 253,0 254,0 255,0 256,0 257,0 258,0 259,0 260,0 261,0 262,0 263,0 264,0 265,0 266,0 267,0 268,0 269,0 270,0 271,0 272,0 273,0 274,0 275,0 276,0 277,0 278,0 279,0 280,0 281,0 282,0 283,0 284,0 285,0 286,0 287,0 288,0 289,0 290,0 291,0 292,0 293,0 294,0 295,0 296,0 297,0 298,0 299,0 300,0 301,0 302,0 303,0 304,0 305,0 306,0 307,0 308,0 309,0 310,0 311,0 312,0 313,0 314,0 315,0 316,0 317,0 318,0 319,0 320,0 321,0 322,0 323,0 324,0 325,0 326,0 327,0 328,0 329,0 330,0 331,0 332,0 333,0 334,0 335,0 336,0 337,0 338,0 339,0 340,0 341,0 342,0 343,0 344,0 345,0 346,0 347,0 348,0 349,0 350,0 351,0 352,0 353,0 354,0 355,0 356,0 357,0 358,0 359,0 360,0 361,0 362,0 363,0 364,0 365,0 366,0 367,0 368,0 369,0 370,0 371,0 372,0 373,0 374,0 375,0 376,0 377,0 378,0 379,0 380,0 381,0 382,0 383,0 384,0 385,0 386,0 387,0 388,0 389,0 390,0 391,0 392,0 393,0 394,0 395,0 396,0 397,0 398,0 399,0 400,0 401,0 402,0 403,0 404,0 405,0 406,0 407,0 408,0 409,0 410,0 411,0 412,0 413,0 414,0 415,0 416,0 417,0 418,0 419,0 420,0 421,0 422,0 423,0 424,0 425,0 426,0 427,0 428,0 429,0 430,0 431,0 432,0 433,0 434,0 435,0 436,0 437,0 438,0 439,0 440,0 441,0 442,0 443,0 444,0 445,0 446,0 447,0 448,0 449,0 450,0 451,0 452,0 453,0 454,0 455,0 456,0 457,0 458,0 459,0 460,0 461,0 462,0 463,0 464,0 465,0 466,0 467,0 468,0 469,0 470,0 471,0 " />
	<!-- Amperage -->
	<polyline style="fill:none;stroke:lime;clip-path:url(#GraphRegion)" points="81,0 82,0 83,0 84,0 85,0 86,0 87,0 88,0 89,0 90,0 91,0 92,0 93,0 94,0 95,0 96,0 97,0 98,0 99,0 100,0 101,0 102,0 103,0 104,0 105,0 106,0 107,0 108,0 109,0 110,0 111,0 112,0 113,0 114,0 115,0 116,0 117,0 118,0 119,0 120,0 121,0 122,0 123,0 124,0 125,0 126,0 127,0 128,0 129,0 130,0 131,0 132,0 133,0 134,0 135,0 136,0 137,0 138,0 139,0 140,0 141,0 142,0 143,0 144,0 145,0 146,0 147,0 148,0 149,0 150,0 151,0 152,0 153,0 154,0 155,0 156,0 157,0 158,0 159,0 160,0 161,0 162,0 163,0 164,0 165,0 166,0 167,0 168,0 169,0 170,0 171,0 172,0 173,0 174,0 175,0 176,0 177,0 178,0 179,0 180,0 181,0 182,0 183,0 184,0 185,0 186,0 187,0 188,0 189,0 190,0 191,0 192,0 193,0 194,0 195,0 196,0 197,0 198,0 199,0 200,0 201,0 202,0 203,0 204,0 205,0 206,0 207,0 208,0 209,0 210,0 211,0 212,0 213,0 214,0 215,0 216,0 217,0 218,0 219,0 220,0 221,0 222,0 223,0 224,0 225,0 226,0 227,0 228,0 229,0 230,0 231,0 232,0 233,0 234,0 235,0 236,0 237,0 238,0 239,0 240,0 241,0 242,0 243,0 244,0 245,0 246,0 247,0 248,0 249,0 250,0 251,0 252,0 253,0 254,0 255,0 256,0 257,0 258,0 259,0 260,0 261,0 262,0 263,0 264,0 265,0 266,0 267,0 268,0 269,0 270,0 271,0 272,0 273,0 274,0 275,0 276,0 277,0 278,0 279,0 280,0 281,0 282,0 283,0 284,0 285,0 286,0 287,0 288,0 289,0 290,0 291,0 292,0 293,0 294,0 295,0 296,0 297,0 298,0 299,0 300,0 301,0 302,0 303,0 304,0 305,0 306,0 307,0 308,0 309,0 310,0 311,0 312,0 313,0 314,0 315,0 316,0 317,0 318,0 319,0 320,0 321,0 322,0 323,0 324,0 325,0 326,0 327,0 328,0 329,0 330,0 331,0 332,0 333,0 334,0 335,0 336,0 337,0 338,0 339,0 340,0 341,0 342,0 343,0 344,0 345,0 346,0 347,0 348,0 349,0 350,0 351,0 352,0 353,0 354,0 355,0 356,0 357,0 358,0 359,0 360,0 361,0 362,0 363,0 364,0 365,0 366,0 367,0 368,0 369,0 370,0 371,0 372,0 373,0 374,0 375,0 376,0 377,0 378,0 379,0 380,0 381,0 382,0 383,0 384,0 385,0 386,0 387,0 388,0 389,0 390,0 391,0 392,0 393,0 394,0 395,0 396,0 397,0 398,0 399,0 400,0 401,0 402,0 403,0 404,0 405,0 406,0 407,0 408,0 409,0 410,0 411,0 412,0 413,0 414,0 415,0 416,0 417,0 418,0 419,0 420,0 421,0 422,0 423,0 424,0 425,0 426,0 427,0 428,0 429,0 430,0 431,0 432,0 433,0 434,0 435,0 436,0 437,0 438,0 439,0 440,0 441,0 442,0 443,0 444,0 445,0 446,0 447,0 448,0 449,0 450,0 451,0 452,0 453,0 454,0 455,0 456,0 457,0 458,0 459,0 460,0 461,0 462,0 463,0 464,0 465,0 466,0 467,0 468,0 469,0 470,0 471,0 " />
	<!-- Voltage -->
	<polyline style="fill:none;stroke:blue;clip-path:url(#GraphRegion)" points="81,119 82,119 83,119 84,119 85,119 86,119 87,119 88,119 89,119 90,119 91,119 92,119 93,119 94,119 95,118 96,118 97,118 98,118 99,119 100,119 101,119 102,121 103,121 104,121 105,119 106,119 107,119 108,119 109,120 110,119 111,120 112,120 113,120 114,120 115,119 116,120 117,119 118,119 119,119 120,119 121,119 122,119 123,119 124,119 125,119 126,119 127,119 128,118 129,119 130,119 131,119 132,119 133,118 134,118 135,118 136,118 137,118 138,118 139,118 140,118 141,118 142,118 143,118 144,118 145,118 146,118 147,118 148,119 149,118 150,118 151,119 152,118 153,119 154,119 155,119 156,119 157,118 158,118 159,119 160,119 161,119 162,119 163,118 164,118 165,117 166,118 167,118 168,118 169,118 170,118 171,118 172,118 173,118 174,118 175,118 176,118 177,118 178,118 179,118 180,118 181,118 182,118 183,118 184,118 185,118 186,118 187,118 188,118 189,118 190,118 191,118 192,118 193,118 194,118 195,118 196,118 197,118 198,118 199,118 200,118 201,118 202,118 203,118 204,118 205,118 206,118 207,118 208,118 209,118 210,118 211,118 212,118 213,118 214,118 215,118 216,118 217,118 218,118 219,118 220,118 221,118 222,118 223,118 224,118 225,118 226,118 227,118 228,118 229,118 230,118 231,118 232,118 233,118 234,118 235,118 236,118 237,118 238,118 239,118 240,118 241,118 242,118 243,118 244,118 245,118 246,118 247,118 248,118 249,118 250,118 251,118 252,118 253,118 254,118 255,118 256,118 257,118 258,118 259,118 260,118 261,118 262,118 263,118 264,118 265,118 266,118 267,118 268,118 269,118 270,118 271,118 272,118 273,118 274,118 275,118 276,118 277,118 278,118 279,118 280,118 281,118 282,118 283,118 284,118 285,118 286,108 287,108 288,108 289,108 290,108 291,108 292,108 293,108 294,108 295,108 296,108 297,108 298,108 299,108 300,108 301,108 302,108 303,108 304,108 305,108 306,108 307,108 308,108 309,108 310,108 311,108 312,108 313,108 314,108 315,108 316,108 317,108 318,108 319,108 320,108 321,108 322,108 323,108 324,108 325,108 326,108 327,108 328,108 329,108 330,108 331,108 332,108 333,108 334,108 335,108 336,108 337,108 338,108 339,108 340,108 341,108 342,108 343,108 344,108 345,108 346,108 347,108 348,108 349,108 350,108 351,108 352,108 353,108 354,108 355,108 356,108 357,108 358,108 359,108 360,108 361,108 362,108 363,108 364,108 365,108 366,108 367,108 368,108 369,108 370,108 371,108 372,108 373,108 374,108 375,108 376,108 377,108 378,108 379,108 380,108 381,108 382,108 383,108 384,108 385,108 386,108 387,108 388,108 389,108 390,108 391,108 392,108 393,108 394,108 395,108 396,108 397,108 398,108 399,108 400,108 401,108 402,108 403,108 404,108 405,108 406,108 407,108 408,108 409,108 410,108 411,108 412,108 413,108 414,108 415,108 416,108 417,108 418,108 419,108 420,108 421,108 422,108 423,108 424,108 425,108 426,108 427,108 428,108 429,108 430,108 431,108 432,108 433,108 434,108 435,108 436,108 437,108 438,108 439,108 440,108 441,108 442,108 443,108 444,108 445,108 446,108 447,108 448,108 449,108 450,108 451,108 452,108 453,108 454,108 455,108 456,108 457,108 458,108 459,108 460,108 461,108 462,108 463,108 464,108 465,108 466,108 467,108 468,108 469,108 470,108 471,108 " />
	<!-- Voltage -->
	<polyline style="fill:none;stroke:aqua;clip-path:url(#GraphRegion)" points="81,16 82,14 83,15 84,15 85,15 86,16 87,16 88,16 89,17 90,16 91,16 92,15 93,14 94,16 95,15 96,17 97,15 98,15 99,17 100,16 101,17 102,18 103,18 104,18 105,15 106,16 107,17 108,16 109,17 110,15 111,16 112,15 113,18 114,15 115,16 116,16 117,16 118,15 119,15 120,16 121,16 122,15 123,16 124,18 125,17 126,15 127,15 128,15 129,16 130,16 131,17 132,17 133,17 134,14 135,15 136,15 137,14 138,15 139,15 140,14 141,16 142,14 143,17 144,14 145,15 146,14 147,16 148,16 149,16 150,15 151,17 152,16 153,16 154,16 155,16 156,17 157,16 158,15 159,16 160,16 161,15 162,16 163,15 164,15 165,15 166,15 167,15 168,15 169,15 170,15 171,16 172,16 173,16 174,16 175,16 176,16 177,16 178,16 179,16 180,16 181,16 182,16 183,16 184,16 185,16 186,16 187,16 188,16 189,16 190,16 191,16 192,16 193,16 194,16 195,15 196,15 197,15 198,15 199,15 200,15 201,15 202,15 203,15 204,15 205,15 206,15 207,15 208,15 209,15 210,15 211,15 212,15 213,15 214,15 215,15 216,15 217,15 218,15 219,15 220,15 221,15 222,15 223,15 224,15 225,15 226,15 227,15 228,15 229,15 230,15 231,15 232,15 233,15 234,15 235,15 236,15 237,15 238,15 239,15 240,15 241,15 242,15 243,15 244,15 245,15 246,15 247,15 248,15 249,15 250,15 251,15 252,15 253,15 254,15 255,15 256,15 257,15 258,15 259,15 260,15 261,15 262,15 263,15 264,15 265,15 266,15 267,15 268,15 269,15 270,15 271,15 272,15 273,15 274,15 275,15 276,15 277,15 278,15 279,15 280,15 281,15 282,15 283,15 284,15 285,15 286,17 287,17 288,17 289,17 290,17 291,17 292,17 293,17 294,17 295,17 296,17 297,17 298,17 299,17 300,17 301,17 302,17 303,17 304,17 305,17 306,17 307,17 308,17 309,17 310,17 311,17 312,17 313,17 314,17 315,17 316,17 317,17 318,17 319,17 320,17 321,17 322,17 323,17 324,17 325,17 326,17 327,17 328,17 329,17 330,17 331,17 332,17 333,17 334,17 335,17 336,17 337,17 338,17 339,17 340,17 341,17 342,17 343,17 344,17 345,17 346,17 347,17 348,17 349,17 350,17 351,17 352,17 353,17 354,17 355,17 356,17 357,17 358,17 359,17 360,17 361,17 362,17 363,17 364,17 365,17 366,17 367,17 368,17 369,17 370,17 371,17 372,17 373,17 374,17 375,17 376,17 377,17 378,17 379,17 380,17 381,17 382,17 383,17 384,17 385,17 386,17 387,17 388,17 389,17 390,17 391,17 392,17 393,17 394,17 395,17 396,17 397,17 398,17 399,17 400,17 401,17 402,17 403,17 404,17 405,17 406,17 407,17 408,17 409,17 410,17 411,17 412,17 413,17 414,17 415,17 416,17 417,17 418,17 419,17 420,17 421,17 422,17 423,17 424,17 425,17 426,17 427,17 428,17 429,17 430,17 431,17 432,17 433,17 434,17 435,17 436,17 437,17 438,17 439,17 440,17 441,17 442,17 443,17 444,17 445,17 446,17 447,17 448,17 449,17 450,17 451,17 452,17 453,17 454,17 455,17 456,17 457,17 458,17 459,17 460,17 461,17 462,17 463,17 464,17 465,17 466,17 467,17 468,17 469,17 470,17 471,17 " />
</svg>
