<?xml version="1.0" encoding="utf-8" standalone="no"?>
<svg xmlns="http://www.w3.org/2000/svg" xmlns:xlink="http://www.w3.org/1999/xlink" width="500" height="135">
	<!-- Created by: VictronBTLELogger Version 3.20241123.0 Built on: Nov 23 2024 at 11:31:55 -->
	<clipPath id="GraphRegion"><polygon points="80,14 472,14 472,121 80,121" /></clipPath>
	<style>
		text { font-family: sans-serif; font-size: 12px; fill: dimgrey; }
		line { stroke: dimgrey; }
		polygon { fill-opacity: 0.5; }
	</style>
	<rect style="fill-opacity:0;stroke:grey;stroke-width:2" width="500" height="135" />
	<text x="80" y="12">S/V Sola Orion XS (D3:D1:90:54:EB:F0)</text>
	<text style="text-anchor:end" x="472" y="12">2024-11-23 00:00:00</text>
	<text style="fill:blue;text-anchor:middle" x="12" y="50%" transform="rotate(270 12,67)">Voltage In (12.83V)</text>
	<text style="fill:aqua;text-anchor:middle" x="24" y="50%" transform="rotate(270 24,67)">Voltage Out (13.44V)</text>
	<text style="fill:green;text-anchor:middle" x="36" y="50%" transform="rotate(270 36,67)">Current In (0.0A)</text>
	<text style="fill:lime;text-anchor:middle" x="48" y="50%" transform="rotate(270 48,67)">Current Out (0.0A)</text>
	<line x1="78" y1="14" x2="474" y2="14"/>
	<text style="fill:blue;text-anchor:end;dominant-baseline:middle" x="78" y="14">13.44</text>
	<text style="fill:green;dominant-baseline:middle" x="474" y="14">0.0</text>
	<line x1="78" y1="121" x2="474" y2="121"/>
	<text style="fill:blue;text-anchor:end;dominant-baseline:middle" x="78" y="121">12.83</text>
	<text style="fill:green;dominant-baseline:middle" x="474" y="121">0.0</text>
	<line x1="80" y1="14" x2="80" y2="121"/>
	<line x1="472" y1="14" x2="472" y2="121"/>
	<line style="stroke-dasharray:1" x1="78" y1="40" x2="474" y2="40" />
	<text style="fill:blue;text-anchor:end;dominant-baseline:middle" x="78" y="40">13.29</text>
	<text style="fill:green;dominant-baseline:middle" x="474" y="40">0.0</text>
	<line style="stroke-dasharray:1" x1="78" y1="66" x2="474" y2="66" />
	<text style="fill:blue;text-anchor:end;dominant-baseline:middle" x="78" y="66">13.13</text>
	<text style="fill:green;dominant-baseline:middle" x="474" y="66">0.0</text>
	<line style="stroke-dasharray:1" x1="78" y1="92" x2="474" y2="92" />
	<text style="fill:blue;text-anchor:end;dominant-baseline:middle" x="78" y="92">12.98</text>
	<text style="fill:green;dominant-baseline:middle" x="474" y="92">0.0</text>
	<text style="text-anchor:middle" x="88" y="133">Nov</text>
	<line style="stroke-dasharray:1" x1="102" y1="14" x2="102" y2="123" />
	<text style="text-anchor:middle" x="119" y="133">Oct</text>
	<polygon style="fill:red;stroke:red;fill-opacity:1;" points="77,121 83,118 83,124" />
	<!-- Amperage -->
	<polyline style="fill:none;stroke:green;clip-path:url(#GraphRegion)" points="81,121 82,121 83,121 84,121 85,121 86,121 87,121 88,121 89,121 90,121 91,121 92,121 93,121 94,121 95,121 96,121 97,121 98,121 99,121 100,121 101,121 102,121 103,121 104,121 105,121 106,121 107,121 108,121 109,121 110,121 111,121 112,121 113,121 114,121 115,121 116,121 117,121 118,121 119,121 120,121 121,121 122,14 123,121 124,121 125,121 " />
	<!-- Amperage -->
	<polyline style="fill:none;stroke:lime;clip-path:url(#GraphRegion)" points="81,121 82,121 83,121 84,121 85,121 86,121 87,121 88,121 89,121 90,121 91,121 92,121 93,121 94,121 95,121 96,121 97,121 98,121 99,121 100,121 101,121 102,121 103,121 104,121 105,121 106,121 107,121 108,121 109,121 110,121 111,121 112,121 113,121 114,121 115,121 116,121 117,121 118,121 119,121 120,121 121,121 122,14 123,121 124,121 125,121 " />
	<!-- Voltage -->
	<polyline style="fill:none;stroke:blue;clip-path:url(#GraphRegion)" points="81,120 82,121 83,120 84,119 85,120 86,119 87,119 88,119 89,119 90,119 91,119 92,119 93,119 94,119 95,119 96,110 97,109 98,109 99,109 100,109 101,109 102,109 103,109 104,109 105,109 106,109 107,109 108,109 109,109 110,109 111,109 112,109 113,109 114,109 115,109 116,109 117,109 118,109 119,109 120,109 121,100 122,107 123,118 124,118 125,116 " />
	<!-- Voltage -->
	<polyline style="fill:none;stroke:aqua;clip-path:url(#GraphRegion)" points="81,15 82,15 83,15 84,14 85,15 86,14 87,15 88,15 89,14 90,14 91,14 92,14 93,14 94,14 95,14 96,16 97,16 98,16 99,16 100,16 101,16 102,16 103,16 104,16 105,16 106,16 107,16 108,16 109,16 110,16 111,16 112,16 113,16 114,16 115,16 116,16 117,16 118,16 119,16 120,16 121,16 122,19 123,18 124,19 125,18 " />
</svg>
