<?xml version="1.0" encoding="utf-8" standalone="no"?>
<svg xmlns="http://www.w3.org/2000/svg" xmlns:xlink="http://www.w3.org/1999/xlink" width="500" height="135">
	<!-- Created by: VictronBTLELogger Version 3.20241123.0 Built on: Nov 23 2024 at 11:31:55 -->
	<clipPath id="GraphRegion"><polygon points="80,14 472,14 472,121 80,121" /></clipPath>
	<style>
		text { font-family: sans-serif; font-size: 12px; fill: dimgrey; }
		line { stroke: dimgrey; }
		polygon { fill-opacity: 0.5; }
	</style>
	<rect style="fill-opacity:0;stroke:grey;stroke-width:2" width="500" height="135" />
	<text x="80" y="12">S/V Sola Battery 1 (CE:A5:D7:7B:CD:81)</text>
	<text style="text-anchor:end" x="472" y="12">2024-11-23 14:00:00</text>
	<text style="fill:blue;text-anchor:middle" x="12" y="50%" transform="rotate(270 12,67)">Temperature (66.2°F)</text>
	<text style="fill:green;text-anchor:middle" x="24" y="50%" transform="rotate(270 24,67)">Voltage (13.48V)</text>
	<text style="fill:green;text-anchor:middle" x="36" y="50%" transform="rotate(270 36,67)">(3.37V) (3.37V)</text>
	<text style="fill:green;text-anchor:middle" x="48" y="50%" transform="rotate(270 48,67)">(3.37V) (3.37V)</text>
	<line x1="78" y1="14" x2="474" y2="14"/>
	<text style="fill:blue;text-anchor:end;dominant-baseline:middle" x="78" y="14">73.3</text>
	<text style="fill:green;dominant-baseline:middle" x="474" y="14">13.5</text>
	<line x1="78" y1="121" x2="474" y2="121"/>
	<text style="fill:blue;text-anchor:end;dominant-baseline:middle" x="78" y="121">62.0</text>
	<text style="fill:green;dominant-baseline:middle" x="474" y="121">3.4</text>
	<line x1="80" y1="14" x2="80" y2="121"/>
	<line x1="472" y1="14" x2="472" y2="121"/>
	<line style="stroke-dasharray:1" x1="78" y1="40" x2="474" y2="40" />
	<text style="fill:blue;text-anchor:end;dominant-baseline:middle" x="78" y="40">70.4</text>
	<text style="fill:green;dominant-baseline:middle" x="474" y="40">11.0</text>
	<line style="stroke-dasharray:1" x1="78" y1="66" x2="474" y2="66" />
	<text style="fill:blue;text-anchor:end;dominant-baseline:middle" x="78" y="66">67.6</text>
	<text style="fill:green;dominant-baseline:middle" x="474" y="66">8.4</text>
	<line style="stroke-dasharray:1" x1="78" y1="92" x2="474" y2="92" />
	<text style="fill:blue;text-anchor:end;dominant-baseline:middle" x="78" y="92">64.8</text>
	<text style="fill:green;dominant-baseline:middle" x="474" y="92">5.9</text>
	<text style="text-anchor:middle" x="117" y="133">Week 47</text>
	<line style="stroke-dasharray:1" x1="159" y1="14" x2="159" y2="123" />
	<text style="text-anchor:middle" x="201" y="133">Week 46</text>
	<line style="stroke-dasharray:1" x1="243" y1="14" x2="243" y2="123" />
	<text style="text-anchor:middle" x="285" y="133">Week 45</text>
	<line style="stroke-dasharray:1" x1="327" y1="14" x2="327" y2="123" />
	<line style="stroke:red" x1="351" y1="14" x2="351" y2="123" />
	<text style="text-anchor:middle" x="369" y="133">Week 44</text>
	<line style="stroke-dasharray:1" x1="411" y1="14" x2="411" y2="123" />
	<text style="text-anchor:middle" x="453" y="133">Week 43</text>
	<polygon style="fill:red;stroke:red;fill-opacity:1;" points="77,121 83,118 83,124" />
	<!-- Temperature -->
	<polyline style="fill:none;stroke:blue;clip-path:url(#GraphRegion)" points="81,81 82,81 83,81 84,85 85,81 86,81 87,81 88,81 89,81 90,81 91,81 92,91 93,98 94,98 95,105 96,98 97,98 98,99 99,98 100,89 101,81 102,81 103,81 104,81 105,98 106,99 107,98 108,99 109,98 110,101 111,99 112,103 113,98 114,101 115,98 116,102 117,101 118,107 119,106 120,98 121,108 122,98 123,115 124,121 125,107 126,102 127,100 128,116 129,115 130,115 131,114 132,99 133,100 134,98 135,98 136,98 137,93 138,84 139,90 140,98 141,98 142,94 143,81 144,89 145,81 146,81 147,81 148,81 149,81 150,75 151,65 152,64 153,64 154,64 155,71 156,81 157,81 158,81 159,81 160,89 161,86 162,100 163,98 164,98 165,98 166,99 167,95 168,81 169,81 170,82 171,85 172,83 173,82 174,68 175,65 176,65 177,65 178,65 179,65 180,65 181,65 182,65 183,65 184,65 185,65 186,65 187,65 188,65 189,65 190,65 191,65 192,65 193,65 194,65 195,64 196,64 197,64 198,64 199,64 200,64 201,64 202,64 203,64 204,64 205,64 206,64 207,64 208,64 209,64 210,64 211,64 212,64 213,64 214,64 215,64 216,64 217,64 218,64 219,64 220,64 221,64 222,64 223,64 224,64 225,64 226,64 227,64 228,64 229,64 230,64 231,64 232,64 233,64 234,64 235,64 236,64 237,64 238,64 239,64 240,64 241,64 242,64 243,64 244,64 245,64 246,64 247,64 248,64 249,64 250,64 251,64 252,64 253,64 254,64 255,64 256,64 257,64 258,64 259,64 260,64 261,64 262,64 263,64 264,64 265,64 266,64 267,64 268,64 269,64 270,64 271,64 272,64 273,64 274,64 275,64 276,64 277,64 278,64 279,64 280,64 281,64 282,64 283,64 284,64 285,64 286,14 287,14 288,14 289,14 290,14 291,14 292,14 293,14 294,14 295,14 296,14 297,14 298,14 299,14 300,14 301,14 302,14 303,14 304,14 305,14 306,14 307,14 308,14 309,14 310,14 311,14 312,14 313,14 314,14 315,14 316,14 317,14 318,14 319,14 320,14 321,14 322,14 323,14 324,14 325,14 326,14 327,14 328,14 329,14 330,14 331,14 332,14 333,14 334,14 335,14 336,14 337,14 338,14 339,14 340,14 341,14 342,14 343,14 344,14 345,14 346,14 347,14 348,14 349,14 350,14 351,14 352,14 353,14 354,14 355,14 356,14 357,14 358,14 359,14 360,14 361,14 362,14 363,14 364,14 365,14 366,14 367,14 368,14 369,14 370,14 371,14 372,14 373,14 374,14 375,14 376,14 377,14 378,14 379,14 380,14 381,14 382,14 383,14 384,14 385,14 386,14 387,14 388,14 389,14 390,14 391,14 392,14 393,14 394,14 395,14 396,14 397,14 398,14 399,14 400,14 401,14 402,14 403,14 404,14 405,14 406,14 407,14 408,14 409,14 410,14 411,14 412,14 413,14 414,14 415,14 416,14 417,14 418,14 419,14 420,14 421,14 422,14 423,14 424,14 425,14 426,14 427,14 428,14 429,14 430,14 431,14 432,14 433,14 434,14 435,14 436,14 437,14 438,14 439,14 440,14 441,14 442,14 443,14 444,14 445,14 446,14 447,14 448,14 449,14 450,14 451,14 452,14 453,14 454,14 455,14 456,14 457,14 458,14 459,14 460,14 461,14 462,14 463,14 464,14 465,14 466,14 467,14 468,14 469,14 470,14 471,14 " />
	<!-- Voltage -->
	<polyline style="fill:lime;stroke:green;clip-path:url(#GraphRegion)" points="81,14 82,14 83,14 84,14 85,14 86,14 87,14 88,14 89,14 90,14 91,14 92,14 93,14 94,14 95,14 96,14 97,14 98,14 99,14 100,14 101,14 102,14 103,14 104,14 105,14 106,14 107,14 108,14 109,14 110,14 111,14 112,14 113,14 114,14 115,14 116,14 117,14 118,14 119,14 120,14 121,14 122,14 123,14 124,14 125,14 126,14 127,14 128,14 129,14 130,14 131,14 132,14 133,14 134,14 135,14 136,14 137,14 138,14 139,14 140,14 141,14 142,14 143,14 144,14 145,14 146,14 147,14 148,14 149,14 150,14 151,14 152,14 153,14 154,14 155,14 156,14 157,14 158,14 159,14 160,14 161,14 162,14 163,14 164,14 165,14 166,14 167,14 168,14 169,14 170,14 171,14 172,14 173,14 174,14 175,14 176,14 177,14 178,14 179,14 180,14 181,14 182,14 183,14 184,14 185,14 186,14 187,14 188,14 189,14 190,14 191,14 192,14 193,14 194,14 195,14 196,14 197,14 198,14 199,14 200,14 201,14 202,14 203,14 204,14 205,14 206,14 207,14 208,14 209,14 210,14 211,14 212,14 213,14 214,14 215,14 216,14 217,14 218,14 219,14 220,14 221,14 222,14 223,14 224,14 225,14 226,14 227,14 228,14 229,14 230,14 231,14 232,14 233,14 234,14 235,14 236,14 237,14 238,14 239,14 240,14 241,14 242,14 243,14 244,14 245,14 246,14 247,14 248,14 249,14 250,14 251,14 252,14 253,14 254,14 255,14 256,14 257,14 258,14 259,14 260,14 261,14 262,14 263,14 264,14 265,14 266,14 267,14 268,14 269,14 270,14 271,14 272,14 273,14 274,14 275,14 276,14 277,14 278,14 279,14 280,14 281,14 282,14 283,14 284,14 285,14 286,14 287,14 288,14 289,14 290,14 291,14 292,14 293,14 294,14 295,14 296,14 297,14 298,14 299,14 300,14 301,14 302,14 303,14 304,14 305,14 306,14 307,14 308,14 309,14 310,14 311,14 312,14 313,14 314,14 315,14 316,14 317,14 318,14 319,14 320,14 321,14 322,14 323,14 324,14 325,14 326,14 327,14 328,14 329,14 330,14 331,14 332,14 333,14 334,14 335,14 336,14 337,14 338,14 339,14 340,14 341,14 342,14 343,14 344,14 345,14 346,14 347,14 348,14 349,14 350,14 351,14 352,14 353,14 354,14 355,14 356,14 357,14 358,14 359,14 360,14 361,14 362,14 363,14 364,14 365,14 366,14 367,14 368,14 369,14 370,14 371,14 372,14 373,14 374,14 375,14 376,14 377,14 378,14 379,14 380,14 381,14 382,14 383,14 384,14 385,14 386,14 387,14 388,14 389,14 390,14 391,14 392,14 393,14 394,14 395,14 396,14 397,14 398,14 399,14 400,14 401,14 402,14 403,14 404,14 405,14 406,14 407,14 408,14 409,14 410,14 411,14 412,14 413,14 414,14 415,14 416,14 417,14 418,14 419,14 420,14 421,14 422,14 423,14 424,14 425,14 426,14 427,14 428,14 429,14 430,14 431,14 432,14 433,14 434,14 435,14 436,14 437,14 438,14 439,14 440,14 441,14 442,14 443,14 444,14 445,14 446,14 447,14 448,14 449,14 450,14 451,14 452,14 453,14 454,14 455,14 456,14 457,14 458,14 459,14 460,14 461,14 462,14 463,14 464,14 465,14 466,14 467,14 468,14 469,14 470,14 471,14 " />
	<!-- Cell 0 Voltage -->
	<polyline style="fill:lime;stroke:green;clip-path:url(#GraphRegion)" points="81,120 82,120 83,120 84,120 85,120 86,120 87,120 88,120 89,120 90,120 91,120 92,120 93,120 94,120 95,120 96,120 97,120 98,120 99,120 100,120 101,120 102,120 103,120 104,120 105,120 106,120 107,120 108,120 109,120 110,120 111,120 112,120 113,120 114,120 115,120 116,120 117,120 118,120 119,120 120,120 121,120 122,120 123,120 124,121 125,120 126,120 127,120 128,120 129,120 130,120 131,120 132,120 133,120 134,120 135,120 136,120 137,120 138,120 139,120 140,120 141,120 142,120 143,120 144,120 145,120 146,120 147,120 148,120 149,120 150,120 151,120 152,120 153,120 154,120 155,120 156,120 157,120 158,120 159,120 160,120 161,120 162,120 163,120 164,120 165,120 166,120 167,120 168,120 169,120 170,120 171,120 172,120 173,120 174,120 175,120 176,120 177,120 178,120 179,120 180,120 181,120 182,120 183,120 184,120 185,120 186,120 187,120 188,120 189,120 190,120 191,120 192,120 193,120 194,120 195,120 196,120 197,120 198,120 199,120 200,120 201,120 202,120 203,120 204,120 205,120 206,120 207,120 208,120 209,120 210,120 211,120 212,120 213,120 214,120 215,120 216,120 217,120 218,120 219,120 220,120 221,120 222,120 223,120 224,120 225,120 226,120 227,120 228,120 229,120 230,120 231,120 232,120 233,120 234,120 235,120 236,120 237,120 238,120 239,120 240,120 241,120 242,120 243,120 244,120 245,120 246,120 247,120 248,120 249,120 250,120 251,120 252,120 253,120 254,120 255,120 256,120 257,120 258,120 259,120 260,120 261,120 262,120 263,120 264,120 265,120 266,120 267,120 268,120 269,120 270,120 271,120 272,120 273,120 274,120 275,120 276,120 277,120 278,120 279,120 280,120 281,120 282,120 283,120 284,120 285,120 286,120 287,120 288,120 289,120 290,120 291,120 292,120 293,120 294,120 295,120 296,120 297,120 298,120 299,120 300,120 301,120 302,120 303,120 304,120 305,120 306,120 307,120 308,120 309,120 310,120 311,120 312,120 313,120 314,120 315,120 316,120 317,120 318,120 319,120 320,120 321,120 322,120 323,120 324,120 325,120 326,120 327,120 328,120 329,120 330,120 331,120 332,120 333,120 334,120 335,120 336,120 337,120 338,120 339,120 340,120 341,120 342,120 343,120 344,120 345,120 346,120 347,120 348,120 349,120 350,120 351,120 352,120 353,120 354,120 355,120 356,120 357,120 358,120 359,120 360,120 361,120 362,120 363,120 364,120 365,120 366,120 367,120 368,120 369,120 370,120 371,120 372,120 373,120 374,120 375,120 376,120 377,120 378,120 379,120 380,120 381,120 382,120 383,120 384,120 385,120 386,120 387,120 388,120 389,120 390,120 391,120 392,120 393,120 394,120 395,120 396,120 397,120 398,120 399,120 400,120 401,120 402,120 403,120 404,120 405,120 406,120 407,120 408,120 409,120 410,120 411,120 412,120 413,120 414,120 415,120 416,120 417,120 418,120 419,120 420,120 421,120 422,120 423,120 424,120 425,120 426,120 427,120 428,120 429,120 430,120 431,120 432,120 433,120 434,120 435,120 436,120 437,120 438,120 439,120 440,120 441,120 442,120 443,120 444,120 445,120 446,120 447,120 448,120 449,120 450,120 451,120 452,120 453,120 454,120 455,120 456,120 457,120 458,120 459,120 460,120 461,120 462,120 463,120 464,120 465,120 466,120 467,120 468,120 469,120 470,120 471,120 " />
	<!-- Cell 1 Voltage -->
	<polyline style="fill:lime;stroke:green;clip-path:url(#GraphRegion)" points="81,120 82,120 83,120 84,120 85,120 86,120 87,120 88,120 89,120 90,120 91,120 92,120 93,120 94,120 95,120 96,120 97,120 98,120 99,120 100,120 101,120 102,120 103,120 104,120 105,120 106,120 107,120 108,120 109,120 110,120 111,120 112,120 113,120 114,120 115,120 116,120 117,120 118,120 119,120 120,120 121,120 122,120 123,120 124,121 125,120 126,120 127,120 128,120 129,120 130,120 131,120 132,120 133,120 134,120 135,120 136,120 137,120 138,120 139,120 140,120 141,120 142,120 143,120 144,120 145,120 146,120 147,120 148,120 149,120 150,120 151,120 152,120 153,120 154,120 155,120 156,120 157,120 158,120 159,120 160,120 161,120 162,120 163,120 164,120 165,120 166,120 167,120 168,120 169,120 170,120 171,120 172,120 173,120 174,120 175,120 176,120 177,120 178,120 179,120 180,120 181,120 182,120 183,120 184,120 185,120 186,120 187,120 188,120 189,120 190,120 191,120 192,120 193,120 194,120 195,120 196,120 197,120 198,120 199,120 200,120 201,120 202,120 203,120 204,120 205,120 206,120 207,120 208,120 209,120 210,120 211,120 212,120 213,120 214,120 215,120 216,120 217,120 218,120 219,120 220,120 221,120 222,120 223,120 224,120 225,120 226,120 227,120 228,120 229,120 230,120 231,120 232,120 233,120 234,120 235,120 236,120 237,120 238,120 239,120 240,120 241,120 242,120 243,120 244,120 245,120 246,120 247,120 248,120 249,120 250,120 251,120 252,120 253,120 254,120 255,120 256,120 257,120 258,120 259,120 260,120 261,120 262,120 263,120 264,120 265,120 266,120 267,120 268,120 269,120 270,120 271,120 272,120 273,120 274,120 275,120 276,120 277,120 278,120 279,120 280,120 281,120 282,120 283,120 284,120 285,120 286,120 287,120 288,120 289,120 290,120 291,120 292,120 293,120 294,120 295,120 296,120 297,120 298,120 299,120 300,120 301,120 302,120 303,120 304,120 305,120 306,120 307,120 308,120 309,120 310,120 311,120 312,120 313,120 314,120 315,120 316,120 317,120 318,120 319,120 320,120 321,120 322,120 323,120 324,120 325,120 326,120 327,120 328,120 329,120 330,120 331,120 332,120 333,120 334,120 335,120 336,120 337,120 338,120 339,120 340,120 341,120 342,120 343,120 344,120 345,120 346,120 347,120 348,120 349,120 350,120 351,120 352,120 353,120 354,120 355,120 356,120 357,120 358,120 359,120 360,120 361,120 362,120 363,120 364,120 365,120 366,120 367,120 368,120 369,120 370,120 371,120 372,120 373,120 374,120 375,120 376,120 377,120 378,120 379,120 380,120 381,120 382,120 383,120 384,120 385,120 386,120 387,120 388,120 389,120 390,120 391,120 392,120 393,120 394,120 395,120 396,120 397,120 398,120 399,120 400,120 401,120 402,120 403,120 404,120 405,120 406,120 407,120 408,120 409,120 410,120 411,120 412,120 413,120 414,120 415,120 416,120 417,120 418,120 419,120 420,120 421,120 422,120 423,120 424,120 425,120 426,120 427,120 428,120 429,120 430,120 431,120 432,120 433,120 434,120 435,120 436,120 437,120 438,120 439,120 440,120 441,120 442,120 443,120 444,120 445,120 446,120 447,120 448,120 449,120 450,120 451,120 452,120 453,120 454,120 455,120 456,120 457,120 458,120 459,120 460,120 461,120 462,120 463,120 464,120 465,120 466,120 467,120 468,120 469,120 470,120 471,120 " />
	<!-- Cell 2 Voltage -->
	<polyline style="fill:lime;stroke:green;clip-path:url(#GraphRegion)" points="81,120 82,120 83,120 84,120 85,120 86,120 87,120 88,120 89,120 90,120 91,120 92,120 93,120 94,120 95,120 96,120 97,120 98,120 99,120 100,120 101,120 102,120 103,120 104,120 105,120 106,120 107,120 108,120 109,120 110,120 111,120 112,120 113,120 114,120 115,120 116,120 117,120 118,120 119,120 120,120 121,120 122,120 123,120 124,121 125,120 126,120 127,120 128,120 129,120 130,120 131,120 132,120 133,120 134,120 135,120 136,120 137,120 138,120 139,120 140,120 141,120 142,120 143,120 144,120 145,120 146,120 147,120 148,120 149,120 150,120 151,120 152,120 153,120 154,120 155,120 156,120 157,120 158,120 159,120 160,120 161,120 162,120 163,120 164,120 165,120 166,120 167,120 168,120 169,120 170,120 171,120 172,120 173,120 174,120 175,120 176,120 177,120 178,120 179,120 180,120 181,120 182,120 183,120 184,120 185,120 186,120 187,120 188,120 189,120 190,120 191,120 192,120 193,120 194,120 195,120 196,120 197,120 198,120 199,120 200,120 201,120 202,120 203,120 204,120 205,120 206,120 207,120 208,120 209,120 210,120 211,120 212,120 213,120 214,120 215,120 216,120 217,120 218,120 219,120 220,120 221,120 222,120 223,120 224,120 225,120 226,120 227,120 228,120 229,120 230,120 231,120 232,120 233,120 234,120 235,120 236,120 237,120 238,120 239,120 240,120 241,120 242,120 243,120 244,120 245,120 246,120 247,120 248,120 249,120 250,120 251,120 252,120 253,120 254,120 255,120 256,120 257,120 258,120 259,120 260,120 261,120 262,120 263,120 264,120 265,120 266,120 267,120 268,120 269,120 270,120 271,120 272,120 273,120 274,120 275,120 276,120 277,120 278,120 279,120 280,120 281,120 282,120 283,120 284,120 285,120 286,120 287,120 288,120 289,120 290,120 291,120 292,120 293,120 294,120 295,120 296,120 297,120 298,120 299,120 300,120 301,120 302,120 303,120 304,120 305,120 306,120 307,120 308,120 309,120 310,120 311,120 312,120 313,120 314,120 315,120 316,120 317,120 318,120 319,120 320,120 321,120 322,120 323,120 324,120 325,120 326,120 327,120 328,120 329,120 330,120 331,120 332,120 333,120 334,120 335,120 336,120 337,120 338,120 339,120 340,120 341,120 342,120 343,120 344,120 345,120 346,120 347,120 348,120 349,120 350,120 351,120 352,120 353,120 354,120 355,120 356,120 357,120 358,120 359,120 360,120 361,120 362,120 363,120 364,120 365,120 366,120 367,120 368,120 369,120 370,120 371,120 372,120 373,120 374,120 375,120 376,120 377,120 378,120 379,120 380,120 381,120 382,120 383,120 384,120 385,120 386,120 387,120 388,120 389,120 390,120 391,120 392,120 393,120 394,120 395,120 396,120 397,120 398,120 399,120 400,120 401,120 402,120 403,120 404,120 405,120 406,120 407,120 408,120 409,120 410,120 411,120 412,120 413,120 414,120 415,120 416,120 417,120 418,120 419,120 420,120 421,120 422,120 423,120 424,120 425,120 426,120 427,120 428,120 429,120 430,120 431,120 432,120 433,120 434,120 435,120 436,120 437,120 438,120 439,120 440,120 441,120 442,120 443,120 444,120 445,120 446,120 447,120 448,120 449,120 450,120 451,120 452,120 453,120 454,120 455,120 456,120 457,120 458,120 459,120 460,120 461,120 462,120 463,120 464,120 465,120 466,120 467,120 468,120 469,120 470,120 471,120 " />
</svg>
