<?xml version="1.0" encoding="utf-8" standalone="no"?>
<svg xmlns="http://www.w3.org/2000/svg" xmlns:xlink="http://www.w3.org/1999/xlink" width="500" height="135">
	<!-- Created by: VictronBTLELogger Version 3.20241123.0 Built on: Nov 23 2024 at 11:31:55 -->
	<clipPath id="GraphRegion"><polygon points="80,14 472,14 472,121 80,121" /></clipPath>
	<style>
		text { font-family: sans-serif; font-size: 12px; fill: dimgrey; }
		line { stroke: dimgrey; }
		polygon { fill-opacity: 0.5; }
	</style>
	<rect style="fill-opacity:0;stroke:grey;stroke-width:2" width="500" height="135" />
	<text x="80" y="12">S/V Sola Orion XS (D3:D1:90:54:EB:F0)</text>
	<text style="text-anchor:end" x="472" y="12">2024-11-23 14:20:00</text>
	<text style="fill:blue;text-anchor:middle" x="12" y="50%" transform="rotate(270 12,67)">Voltage In (12.83V)</text>
	<text style="fill:aqua;text-anchor:middle" x="24" y="50%" transform="rotate(270 24,67)">Voltage Out (13.43V)</text>
	<text style="fill:green;text-anchor:middle" x="36" y="50%" transform="rotate(270 36,67)">Current In (0.0A)</text>
	<text style="fill:lime;text-anchor:middle" x="48" y="50%" transform="rotate(270 48,67)">Current Out (0.0A)</text>
	<line x1="78" y1="14" x2="474" y2="14"/>
	<text style="fill:blue;text-anchor:end;dominant-baseline:middle" x="78" y="14">13.47</text>
	<text style="fill:green;dominant-baseline:middle" x="474" y="14">0.0</text>
	<line x1="78" y1="121" x2="474" y2="121"/>
	<text style="fill:blue;text-anchor:end;dominant-baseline:middle" x="78" y="121">12.82</text>
	<text style="fill:green;dominant-baseline:middle" x="474" y="121">0.0</text>
	<line x1="80" y1="14" x2="80" y2="121"/>
	<line x1="472" y1="14" x2="472" y2="121"/>
	<line style="stroke-dasharray:1" x1="78" y1="40" x2="474" y2="40" />
	<text style="fill:blue;text-anchor:end;dominant-baseline:middle" x="78" y="40">13.31</text>
	<text style="fill:green;dominant-baseline:middle" x="474" y="40">0.0</text>
	<line style="stroke-dasharray:1" x1="78" y1="66" x2="474" y2="66" />
	<text style="fill:blue;text-anchor:end;dominant-baseline:middle" x="78" y="66">13.14</text>
	<text style="fill:green;dominant-baseline:middle" x="474" y="66">0.0</text>
	<line style="stroke-dasharray:1" x1="78" y1="92" x2="474" y2="92" />
	<text style="fill:blue;text-anchor:end;dominant-baseline:middle" x="78" y="92">12.98</text>
	<text style="fill:green;dominant-baseline:middle" x="474" y="92">0.0</text>
	<line style="stroke-dasharray:1" x1="83" y1="14" x2="83" y2="123" />
	<text style="text-anchor:middle" x="83" y="133">14</text>
	<line style="stroke-dasharray:1" x1="95" y1="14" x2="95" y2="123" />
	<line style="stroke-dasharray:1" x1="107" y1="14" x2="107" y2="123" />
	<text style="text-anchor:middle" x="107" y="133">12</text>
	<line style="stroke-dasharray:1" x1="119" y1="14" x2="119" y2="123" />
	<line style="stroke-dasharray:1" x1="131" y1="14" x2="131" y2="123" />
	<text style="text-anchor:middle" x="131" y="133">10</text>
	<line style="stroke-dasharray:1" x1="143" y1="14" x2="143" y2="123" />
	<line style="stroke-dasharray:1" x1="155" y1="14" x2="155" y2="123" />
	<text style="text-anchor:middle" x="155" y="133">8</text>
	<line style="stroke-dasharray:1" x1="167" y1="14" x2="167" y2="123" />
	<line style="stroke-dasharray:1" x1="179" y1="14" x2="179" y2="123" />
	<text style="text-anchor:middle" x="179" y="133">6</text>
	<line style="stroke-dasharray:1" x1="191" y1="14" x2="191" y2="123" />
	<line style="stroke-dasharray:1" x1="203" y1="14" x2="203" y2="123" />
	<text style="text-anchor:middle" x="203" y="133">4</text>
	<line style="stroke-dasharray:1" x1="215" y1="14" x2="215" y2="123" />
	<line style="stroke-dasharray:1" x1="227" y1="14" x2="227" y2="123" />
	<text style="text-anchor:middle" x="227" y="133">2</text>
	<line style="stroke-dasharray:1" x1="239" y1="14" x2="239" y2="123" />
	<line style="stroke:red" x1="251" y1="14" x2="251" y2="123" />
	<text style="text-anchor:middle" x="251" y="133">0</text>
	<line style="stroke-dasharray:1" x1="263" y1="14" x2="263" y2="123" />
	<line style="stroke-dasharray:1" x1="275" y1="14" x2="275" y2="123" />
	<text style="text-anchor:middle" x="275" y="133">22</text>
	<line style="stroke-dasharray:1" x1="287" y1="14" x2="287" y2="123" />
	<line style="stroke-dasharray:1" x1="299" y1="14" x2="299" y2="123" />
	<text style="text-anchor:middle" x="299" y="133">20</text>
	<line style="stroke-dasharray:1" x1="311" y1="14" x2="311" y2="123" />
	<line style="stroke-dasharray:1" x1="323" y1="14" x2="323" y2="123" />
	<text style="text-anchor:middle" x="323" y="133">18</text>
	<line style="stroke-dasharray:1" x1="335" y1="14" x2="335" y2="123" />
	<line style="stroke-dasharray:1" x1="347" y1="14" x2="347" y2="123" />
	<text style="text-anchor:middle" x="347" y="133">16</text>
	<line style="stroke-dasharray:1" x1="359" y1="14" x2="359" y2="123" />
	<line style="stroke-dasharray:1" x1="371" y1="14" x2="371" y2="123" />
	<text style="text-anchor:middle" x="371" y="133">14</text>
	<line style="stroke-dasharray:1" x1="383" y1="14" x2="383" y2="123" />
	<line style="stroke-dasharray:1" x1="395" y1="14" x2="395" y2="123" />
	<text style="text-anchor:middle" x="395" y="133">12</text>
	<line style="stroke-dasharray:1" x1="407" y1="14" x2="407" y2="123" />
	<line style="stroke-dasharray:1" x1="419" y1="14" x2="419" y2="123" />
	<text style="text-anchor:middle" x="419" y="133">10</text>
	<line style="stroke-dasharray:1" x1="431" y1="14" x2="431" y2="123" />
	<line style="stroke-dasharray:1" x1="443" y1="14" x2="443" y2="123" />
	<text style="text-anchor:middle" x="443" y="133">8</text>
	<line style="stroke-dasharray:1" x1="455" y1="14" x2="455" y2="123" />
	<line style="stroke-dasharray:1" x1="467" y1="14" x2="467" y2="123" />
	<text style="text-anchor:middle" x="467" y="133">6</text>
	<polygon style="fill:red;stroke:red;fill-opacity:1;" points="77,121 83,118 83,124" />
	<!-- Amperage -->
	<polyline style="fill:none;stroke:green;clip-path:url(#GraphRegion)" points="81,0 82,0 83,0 84,0 85,0 86,0 87,0 88,0 89,0 90,0 91,0 92,0 93,0 94,0 95,0 96,0 97,0 98,0 99,0 100,0 101,0 102,0 103,0 104,0 105,0 106,0 107,0 108,0 109,0 110,0 111,0 112,0 113,0 114,0 115,0 116,0 117,0 118,0 119,0 120,0 121,0 122,0 123,0 124,0 125,0 126,0 127,0 128,0 129,0 130,0 131,0 132,0 133,0 134,0 135,0 136,0 137,0 138,0 139,0 140,0 141,0 142,0 143,0 144,0 145,0 146,0 147,0 148,0 149,0 150,0 151,0 152,0 153,0 154,0 155,0 156,0 157,0 158,0 159,0 160,0 161,0 162,0 163,0 164,0 165,0 166,0 167,0 168,0 169,0 170,0 171,0 172,0 173,0 174,0 175,0 176,0 177,0 178,0 179,0 180,0 181,0 182,0 183,0 184,0 185,0 186,0 187,0 188,0 189,0 190,0 191,0 192,0 193,0 194,0 195,0 196,0 197,0 198,0 199,0 200,0 201,0 202,0 203,0 204,0 205,0 206,0 207,0 208,0 209,0 210,0 211,0 212,0 213,0 214,0 215,0 216,0 217,0 218,0 219,0 220,0 221,0 222,0 223,0 224,0 225,0 226,0 227,0 228,0 229,0 230,0 231,0 232,0 233,0 234,0 235,0 236,0 237,0 238,0 239,0 240,0 241,0 242,0 243,0 244,0 245,0 246,0 247,0 248,0 249,0 250,0 251,0 252,0 253,0 254,0 255,0 256,0 257,0 258,0 259,0 260,0 261,0 262,0 263,0 264,0 265,0 266,0 267,0 268,0 269,0 270,0 271,0 272,0 273,0 274,0 275,0 276,0 277,0 278,0 279,0 280,0 281,0 282,0 283,0 284,0 285,0 286,0 287,0 288,0 289,0 290,0 291,0 292,0 293,0 294,0 295,0 296,0 297,0 298,0 299,0 300,0 301,0 302,0 303,0 304,0 305,0 306,0 307,0 308,0 309,0 310,0 311,0 312,0 313,0 314,0 315,0 316,0 317,0 318,0 319,0 320,0 321,0 322,0 323,0 324,0 325,0 326,0 327,0 328,0 329,0 330,0 331,0 332,0 333,0 334,0 335,0 336,0 337,0 338,0 339,0 340,0 341,0 342,0 343,0 344,0 345,0 346,0 347,0 348,0 349,0 350,0 351,0 352,0 353,0 354,0 355,0 356,0 357,0 358,0 359,0 360,0 361,0 362,0 363,0 364,0 365,0 366,0 367,0 368,0 369,0 370,0 371,0 372,0 373,0 374,0 375,0 376,0 377,0 378,0 379,0 380,0 381,0 382,0 383,0 384,0 385,0 386,0 387,0 388,0 389,0 390,0 391,0 392,0 393,0 394,0 395,0 396,0 397,0 398,0 399,0 400,0 401,0 402,0 403,0 404,0 405,0 406,0 407,0 408,0 409,0 410,0 411,0 412,0 413,0 414,0 415,0 416,0 417,0 418,0 419,0 420,0 421,0 422,0 423,0 424,0 425,0 426,0 427,0 428,0 429,0 430,0 431,0 432,0 433,0 434,0 435,0 436,0 437,0 438,0 439,0 440,0 441,0 442,0 443,0 444,0 445,0 446,0 447,0 448,0 449,0 450,0 451,0 452,0 453,0 454,0 455,0 456,0 457,0 458,0 459,0 460,0 461,0 462,0 463,0 464,0 465,0 466,0 467,0 468,0 469,0 470,0 471,0 " />
	<!-- Amperage -->
	<polyline style="fill:none;stroke:lime;clip-path:url(#GraphRegion)" points="81,0 82,0 83,0 84,0 85,0 86,0 87,0 88,0 89,0 90,0 91,0 92,0 93,0 94,0 95,0 96,0 97,0 98,0 99,0 100,0 101,0 102,0 103,0 104,0 105,0 106,0 107,0 108,0 109,0 110,0 111,0 112,0 113,0 114,0 115,0 116,0 117,0 118,0 119,0 120,0 121,0 122,0 123,0 124,0 125,0 126,0 127,0 128,0 129,0 130,0 131,0 132,0 133,0 134,0 135,0 136,0 137,0 138,0 139,0 140,0 141,0 142,0 143,0 144,0 145,0 146,0 147,0 148,0 149,0 150,0 151,0 152,0 153,0 154,0 155,0 156,0 157,0 158,0 159,0 160,0 161,0 162,0 163,0 164,0 165,0 166,0 167,0 168,0 169,0 170,0 171,0 172,0 173,0 174,0 175,0 176,0 177,0 178,0 179,0 180,0 181,0 182,0 183,0 184,0 185,0 186,0 187,0 188,0 189,0 190,0 191,0 192,0 193,0 194,0 195,0 196,0 197,0 198,0 199,0 200,0 201,0 202,0 203,0 204,0 205,0 206,0 207,0 208,0 209,0 210,0 211,0 212,0 213,0 214,0 215,0 216,0 217,0 218,0 219,0 220,0 221,0 222,0 223,0 224,0 225,0 226,0 227,0 228,0 229,0 230,0 231,0 232,0 233,0 234,0 235,0 236,0 237,0 238,0 239,0 240,0 241,0 242,0 243,0 244,0 245,0 246,0 247,0 248,0 249,0 250,0 251,0 252,0 253,0 254,0 255,0 256,0 257,0 258,0 259,0 260,0 261,0 262,0 263,0 264,0 265,0 266,0 267,0 268,0 269,0 270,0 271,0 272,0 273,0 274,0 275,0 276,0 277,0 278,0 279,0 280,0 281,0 282,0 283,0 284,0 285,0 286,0 287,0 288,0 289,0 290,0 291,0 292,0 293,0 294,0 295,0 296,0 297,0 298,0 299,0 300,0 301,0 302,0 303,0 304,0 305,0 306,0 307,0 308,0 309,0 310,0 311,0 312,0 313,0 314,0 315,0 316,0 317,0 318,0 319,0 320,0 321,0 322,0 323,0 324,0 325,0 326,0 327,0 328,0 329,0 330,0 331,0 332,0 333,0 334,0 335,0 336,0 337,0 338,0 339,0 340,0 341,0 342,0 343,0 344,0 345,0 346,0 347,0 348,0 349,0 350,0 351,0 352,0 353,0 354,0 355,0 356,0 357,0 358,0 359,0 360,0 361,0 362,0 363,0 364,0 365,0 366,0 367,0 368,0 369,0 370,0 371,0 372,0 373,0 374,0 375,0 376,0 377,0 378,0 379,0 380,0 381,0 382,0 383,0 384,0 385,0 386,0 387,0 388,0 389,0 390,0 391,0 392,0 393,0 394,0 395,0 396,0 397,0 398,0 399,0 400,0 401,0 402,0 403,0 404,0 405,0 406,0 407,0 408,0 409,0 410,0 411,0 412,0 413,0 414,0 415,0 416,0 417,0 418,0 419,0 420,0 421,0 422,0 423,0 424,0 425,0 426,0 427,0 428,0 429,0 430,0 431,0 432,0 433,0 434,0 435,0 436,0 437,0 438,0 439,0 440,0 441,0 442,0 443,0 444,0 445,0 446,0 447,0 448,0 449,0 450,0 451,0 452,0 453,0 454,0 455,0 456,0 457,0 458,0 459,0 460,0 461,0 462,0 463,0 464,0 465,0 466,0 467,0 468,0 469,0 470,0 471,0 " />
	<!-- Voltage -->
	<polyline style="fill:none;stroke:blue;clip-path:url(#GraphRegion)" points="81,119 82,119 83,119 84,119 85,119 86,119 87,119 88,119 89,119 90,119 91,119 92,119 93,119 94,119 95,119 96,119 97,119 98,119 99,119 100,119 101,119 102,119 103,119 104,119 105,119 106,119 107,119 108,119 109,119 110,119 111,119 112,119 113,119 114,119 115,119 116,120 117,120 118,119 119,119 120,119 121,119 122,119 123,119 124,118 125,119 126,119 127,119 128,119 129,119 130,119 131,118 132,119 133,119 134,119 135,119 136,119 137,119 138,119 139,119 140,119 141,119 142,119 143,119 144,119 145,119 146,119 147,118 148,118 149,119 150,119 151,119 152,119 153,119 154,119 155,119 156,120 157,119 158,120 159,119 160,119 161,119 162,119 163,119 164,119 165,119 166,119 167,119 168,119 169,119 170,119 171,119 172,119 173,119 174,119 175,118 176,118 177,118 178,119 179,119 180,119 181,119 182,119 183,119 184,119 185,119 186,119 187,120 188,119 189,119 190,119 191,119 192,119 193,120 194,120 195,119 196,119 197,119 198,119 199,119 200,120 201,119 202,119 203,119 204,120 205,119 206,119 207,119 208,120 209,119 210,119 211,119 212,119 213,119 214,120 215,120 216,120 217,119 218,119 219,119 220,119 221,119 222,120 223,120 224,119 225,120 226,120 227,120 228,120 229,120 230,119 231,119 232,119 233,119 234,119 235,119 236,119 237,119 238,119 239,119 240,119 241,119 242,119 243,119 244,119 245,119 246,119 247,119 248,119 249,119 250,120 251,119 252,119 253,120 254,119 255,119 256,119 257,119 258,120 259,119 260,119 261,119 262,120 263,119 264,119 265,119 266,119 267,119 268,119 269,119 270,119 271,119 272,120 273,120 274,120 275,120 276,120 277,119 278,119 279,119 280,119 281,120 282,119 283,119 284,119 285,119 286,119 287,120 288,121 289,120 290,119 291,119 292,119 293,119 294,119 295,119 296,120 297,120 298,119 299,119 300,119 301,119 302,119 303,119 304,119 305,119 306,119 307,119 308,119 309,119 310,120 311,119 312,119 313,119 314,119 315,119 316,119 317,119 318,119 319,120 320,120 321,119 322,119 323,119 324,119 325,119 326,119 327,119 328,119 329,120 330,119 331,120 332,120 333,120 334,119 335,120 336,120 337,120 338,119 339,119 340,119 341,119 342,119 343,119 344,119 345,119 346,119 347,119 348,119 349,119 350,119 351,119 352,119 353,119 354,119 355,119 356,119 357,119 358,119 359,119 360,119 361,119 362,119 363,120 364,119 365,119 366,119 367,119 368,119 369,119 370,119 371,119 372,119 373,119 374,119 375,119 376,119 377,119 378,119 379,119 380,119 381,119 382,119 383,119 384,119 385,119 386,120 387,120 388,120 389,120 390,120 391,120 392,119 393,119 394,119 395,119 396,119 397,119 398,118 399,118 400,119 401,118 402,119 403,119 404,119 405,119 406,119 407,119 408,119 409,119 410,119 411,119 412,119 413,119 414,119 415,120 416,119 417,119 418,119 419,119 420,119 421,119 422,119 423,119 424,119 425,119 426,119 427,119 428,119 429,119 430,119 431,118 432,118 433,119 434,119 435,119 436,119 437,119 438,119 439,119 440,118 441,118 442,118 443,118 444,119 445,119 446,119 447,118 448,118 449,118 450,118 451,118 452,119 453,119 454,119 455,119 456,118 457,119 458,119 459,119 460,119 461,119 462,118 463,119 464,119 465,119 466,119 467,119 468,118 469,119 470,119 471,119 " />
	<!-- Voltage -->
	<polyline style="fill:none;stroke:aqua;clip-path:url(#GraphRegion)" points="81,19 82,18 83,18 84,21 85,20 86,18 87,17 88,19 89,20 90,19 91,19 92,20 93,21 94,21 95,19 96,19 97,19 98,19 99,19 100,19 101,19 102,19 103,19 104,19 105,19 106,19 107,19 108,19 109,19 110,19 111,19 112,19 113,19 114,19 115,19 116,21 117,21 118,21 119,20 120,20 121,18 122,19 123,19 124,19 125,19 126,19 127,19 128,19 129,18 130,18 131,18 132,19 133,19 134,17 135,15 136,14 137,16 138,19 139,18 140,18 141,19 142,18 143,18 144,17 145,18 146,18 147,17 148,16 149,16 150,18 151,17 152,16 153,16 154,16 155,17 156,20 157,19 158,18 159,17 160,19 161,20 162,19 163,18 164,18 165,20 166,21 167,20 168,19 169,18 170,18 171,17 172,17 173,18 174,18 175,18 176,18 177,18 178,18 179,18 180,17 181,19 182,19 183,18 184,17 185,17 186,16 187,18 188,16 189,14 190,14 191,15 192,19 193,21 194,23 195,22 196,21 197,21 198,21 199,20 200,20 201,19 202,19 203,19 204,19 205,20 206,20 207,19 208,18 209,16 210,16 211,17 212,18 213,16 214,16 215,15 216,18 217,16 218,15 219,17 220,20 221,21 222,23 223,20 224,19 225,20 226,19 227,19 228,20 229,20 230,19 231,20 232,20 233,20 234,20 235,18 236,19 237,22 238,22 239,22 240,21 241,20 242,19 243,19 244,18 245,17 246,16 247,19 248,21 249,20 250,19 251,18 252,17 253,18 254,19 255,18 256,17 257,17 258,17 259,18 260,20 261,21 262,21 263,22 264,21 265,19 266,18 267,20 268,21 269,21 270,20 271,20 272,17 273,16 274,18 275,18 276,18 277,18 278,18 279,20 280,20 281,19 282,20 283,19 284,17 285,22 286,21 287,20 288,19 289,18 290,20 291,21 292,20 293,20 294,19 295,18 296,15 297,17 298,20 299,22 300,21 301,20 302,22 303,22 304,23 305,22 306,19 307,19 308,19 309,19 310,21 311,22 312,21 313,21 314,19 315,18 316,17 317,16 318,17 319,18 320,22 321,20 322,20 323,19 324,20 325,20 326,21 327,21 328,21 329,20 330,18 331,17 332,16 333,17 334,19 335,21 336,23 337,21 338,18 339,17 340,18 341,17 342,18 343,18 344,20 345,21 346,20 347,19 348,17 349,18 350,20 351,20 352,20 353,20 354,20 355,21 356,21 357,21 358,21 359,19 360,17 361,18 362,20 363,21 364,20 365,20 366,19 367,20 368,20 369,20 370,20 371,20 372,20 373,20 374,20 375,19 376,16 377,15 378,17 379,18 380,17 381,19 382,20 383,19 384,19 385,19 386,17 387,18 388,19 389,18 390,18 391,19 392,18 393,17 394,17 395,17 396,16 397,16 398,17 399,17 400,19 401,20 402,19 403,18 404,20 405,20 406,18 407,17 408,16 409,19 410,19 411,17 412,16 413,14 414,15 415,20 416,16 417,17 418,19 419,22 420,21 421,20 422,19 423,20 424,20 425,19 426,17 427,17 428,20 429,21 430,20 431,18 432,19 433,21 434,19 435,19 436,17 437,16 438,17 439,19 440,19 441,18 442,18 443,19 444,20 445,20 446,17 447,17 448,17 449,19 450,19 451,17 452,16 453,15 454,17 455,16 456,15 457,17 458,15 459,15 460,19 461,20 462,23 463,22 464,20 465,20 466,22 467,23 468,20 469,21 470,17 471,19 " />
</svg>
