<?xml version="1.0" encoding="utf-8" standalone="no"?>
<svg xmlns="http://www.w3.org/2000/svg" xmlns:xlink="http://www.w3.org/1999/xlink" width="500" height="135">
	<!-- Created by: VictronBTLELogger Version 3.20240907.5 Built on: Sep  7 2024 at 18:45:45 -->
	<clipPath id="GraphRegion"><polygon points="84,14 476,14 476,121 84,121" /></clipPath>
	<style>
		text { font-family: sans-serif; font-size: 12px; fill: black; }
		line { stroke: black; }
		polygon { fill-opacity: 0.5; }
	</style>
	<rect style="fill-opacity:0;stroke:grey;stroke-width:2" width="500" height="135" />
	<text x="84" y="12">S/V Sola Orion XS (D3:D1:90:54:EB:F0)</text>
	<text style="text-anchor:end" x="476" y="12">2024-09-07 18:59:57</text>
	<text style="fill:blue;text-anchor:middle" x="12" y="50%" transform="rotate(270 12,67)">Voltage In (12.90V)</text>
	<text style="fill:aqua;text-anchor:middle" x="24" y="50%" transform="rotate(270 24,67)">Voltage Out (13.45V)</text>
	<text style="fill:green;text-anchor:middle" x="36" y="50%" transform="rotate(270 36,67)">Current In (0.0A)</text>
	<text style="fill:lime;text-anchor:middle" x="48" y="50%" transform="rotate(270 48,67)">Current Out (0.0A)</text>
	<line x1="82" y1="14" x2="478" y2="14"/>
	<text style="fill:blue;text-anchor:end;dominant-baseline:middle" x="82" y="14">13.46</text>
	<text style="fill:green;dominant-baseline:middle" x="478" y="14">0.0</text>
	<line x1="82" y1="121" x2="478" y2="121"/>
	<text style="fill:blue;text-anchor:end;dominant-baseline:middle" x="82" y="121">12.89</text>
	<text style="fill:green;dominant-baseline:middle" x="478" y="121">0.0</text>
	<line x1="84" y1="14" x2="84" y2="121"/>
	<line x1="476" y1="14" x2="476" y2="121"/>
	<line style="stroke-dasharray:1" x1="82" y1="40" x2="478" y2="40" />
	<text style="fill:blue;text-anchor:end;dominant-baseline:middle" x="82" y="40">13.32</text>
	<text style="fill:green;dominant-baseline:middle" x="478" y="40">0.0</text>
	<line style="stroke-dasharray:1" x1="82" y1="66" x2="478" y2="66" />
	<text style="fill:blue;text-anchor:end;dominant-baseline:middle" x="82" y="66">13.18</text>
	<text style="fill:green;dominant-baseline:middle" x="478" y="66">0.0</text>
	<line style="stroke-dasharray:1" x1="82" y1="92" x2="478" y2="92" />
	<text style="fill:blue;text-anchor:end;dominant-baseline:middle" x="82" y="92">13.03</text>
	<text style="fill:green;dominant-baseline:middle" x="478" y="92">0.0</text>
	<line style="stroke-dasharray:1" x1="95" y1="14" x2="95" y2="123" />
	<text style="text-anchor:middle" x="95" y="133">18</text>
	<line style="stroke-dasharray:1" x1="107" y1="14" x2="107" y2="123" />
	<line style="stroke-dasharray:1" x1="119" y1="14" x2="119" y2="123" />
	<text style="text-anchor:middle" x="119" y="133">16</text>
	<line style="stroke-dasharray:1" x1="131" y1="14" x2="131" y2="123" />
	<line style="stroke-dasharray:1" x1="143" y1="14" x2="143" y2="123" />
	<text style="text-anchor:middle" x="143" y="133">14</text>
	<line style="stroke-dasharray:1" x1="155" y1="14" x2="155" y2="123" />
	<line style="stroke-dasharray:1" x1="167" y1="14" x2="167" y2="123" />
	<text style="text-anchor:middle" x="167" y="133">12</text>
	<line style="stroke-dasharray:1" x1="179" y1="14" x2="179" y2="123" />
	<line style="stroke-dasharray:1" x1="191" y1="14" x2="191" y2="123" />
	<text style="text-anchor:middle" x="191" y="133">10</text>
	<line style="stroke-dasharray:1" x1="203" y1="14" x2="203" y2="123" />
	<line style="stroke-dasharray:1" x1="215" y1="14" x2="215" y2="123" />
	<text style="text-anchor:middle" x="215" y="133">8</text>
	<line style="stroke-dasharray:1" x1="227" y1="14" x2="227" y2="123" />
	<line style="stroke-dasharray:1" x1="239" y1="14" x2="239" y2="123" />
	<text style="text-anchor:middle" x="239" y="133">6</text>
	<line style="stroke-dasharray:1" x1="251" y1="14" x2="251" y2="123" />
	<line style="stroke-dasharray:1" x1="263" y1="14" x2="263" y2="123" />
	<text style="text-anchor:middle" x="263" y="133">4</text>
	<line style="stroke-dasharray:1" x1="275" y1="14" x2="275" y2="123" />
	<line style="stroke-dasharray:1" x1="287" y1="14" x2="287" y2="123" />
	<text style="text-anchor:middle" x="287" y="133">2</text>
	<line style="stroke-dasharray:1" x1="299" y1="14" x2="299" y2="123" />
	<line style="stroke:red" x1="311" y1="14" x2="311" y2="123" />
	<text style="text-anchor:middle" x="311" y="133">0</text>
	<line style="stroke-dasharray:1" x1="323" y1="14" x2="323" y2="123" />
	<line style="stroke-dasharray:1" x1="335" y1="14" x2="335" y2="123" />
	<text style="text-anchor:middle" x="335" y="133">22</text>
	<line style="stroke-dasharray:1" x1="347" y1="14" x2="347" y2="123" />
	<line style="stroke-dasharray:1" x1="359" y1="14" x2="359" y2="123" />
	<text style="text-anchor:middle" x="359" y="133">20</text>
	<line style="stroke-dasharray:1" x1="371" y1="14" x2="371" y2="123" />
	<line style="stroke-dasharray:1" x1="383" y1="14" x2="383" y2="123" />
	<text style="text-anchor:middle" x="383" y="133">18</text>
	<line style="stroke-dasharray:1" x1="395" y1="14" x2="395" y2="123" />
	<polygon style="fill:red;stroke:red;fill-opacity:1;" points="81,121 87,118 87,124" />
	<!-- Amperage -->
	<polyline style="fill:none;stroke:green;clip-path:url(#GraphRegion)" points="85,0 86,0 87,0 88,0 89,0 90,0 91,0 92,0 93,0 94,0 95,0 96,0 97,0 98,0 99,0 100,0 101,0 102,0 103,0 104,0 105,0 106,0 107,0 108,0 109,0 110,0 111,0 112,0 113,0 114,0 115,0 116,0 117,0 118,0 119,0 120,0 121,0 122,0 123,0 124,0 125,0 126,0 127,0 128,0 129,0 130,0 131,0 132,0 133,0 134,0 135,0 136,0 137,0 138,0 139,0 140,0 141,0 142,0 143,0 144,0 145,0 146,0 147,0 148,0 149,0 150,0 151,0 152,0 153,0 154,0 155,0 156,0 157,0 158,0 159,0 160,0 161,0 162,0 163,0 164,0 165,0 166,0 167,0 168,0 169,0 170,0 171,0 172,0 173,0 174,0 175,0 176,0 177,0 178,0 179,0 180,0 181,0 182,0 183,0 184,0 185,0 186,0 187,0 188,0 189,0 190,0 191,0 192,0 193,0 194,0 195,0 196,0 197,0 198,0 199,0 200,0 201,0 202,0 203,0 204,0 205,0 206,0 207,0 208,0 209,0 210,0 211,0 212,0 213,0 214,0 215,0 216,0 217,0 218,0 219,0 220,0 221,0 222,0 223,0 224,0 225,0 226,0 227,0 228,0 229,0 230,0 231,0 232,0 233,0 234,0 235,0 236,0 237,0 238,0 239,0 240,0 241,0 242,0 243,0 244,0 245,0 246,0 247,0 248,0 249,0 250,0 251,0 252,0 253,0 254,0 255,0 256,0 257,0 258,0 259,0 260,0 261,0 262,0 263,0 264,0 265,0 266,0 267,0 268,0 269,0 270,0 271,0 272,0 273,0 274,0 275,0 276,0 277,0 278,0 279,0 280,0 281,0 282,0 283,0 284,0 285,0 286,0 287,0 288,0 289,0 290,0 291,0 292,0 293,0 294,0 295,0 296,0 297,0 298,0 299,0 300,0 301,0 302,0 303,0 304,0 305,0 306,0 307,0 308,0 309,0 310,0 311,0 312,0 313,0 314,0 315,0 316,0 317,0 318,0 319,0 320,0 321,0 322,0 323,0 324,0 325,0 326,0 327,0 328,0 329,0 330,0 331,0 332,0 333,0 334,0 335,0 336,0 337,0 338,0 339,0 340,0 341,0 342,0 343,0 344,0 345,0 346,0 347,0 348,0 349,0 350,0 351,0 352,0 353,0 354,0 355,0 356,0 357,0 358,0 359,0 360,0 361,0 362,0 363,0 364,0 365,0 366,0 367,0 368,0 369,0 370,0 371,0 372,0 373,0 374,0 375,0 376,0 377,0 378,0 379,0 380,0 381,0 382,0 383,0 384,0 385,0 386,0 387,0 388,0 389,0 390,0 391,0 392,0 393,0 394,0 395,0 " />
	<!-- Amperage -->
	<polyline style="fill:none;stroke:lime;clip-path:url(#GraphRegion)" points="85,0 86,0 87,0 88,0 89,0 90,0 91,0 92,0 93,0 94,0 95,0 96,0 97,0 98,0 99,0 100,0 101,0 102,0 103,0 104,0 105,0 106,0 107,0 108,0 109,0 110,0 111,0 112,0 113,0 114,0 115,0 116,0 117,0 118,0 119,0 120,0 121,0 122,0 123,0 124,0 125,0 126,0 127,0 128,0 129,0 130,0 131,0 132,0 133,0 134,0 135,0 136,0 137,0 138,0 139,0 140,0 141,0 142,0 143,0 144,0 145,0 146,0 147,0 148,0 149,0 150,0 151,0 152,0 153,0 154,0 155,0 156,0 157,0 158,0 159,0 160,0 161,0 162,0 163,0 164,0 165,0 166,0 167,0 168,0 169,0 170,0 171,0 172,0 173,0 174,0 175,0 176,0 177,0 178,0 179,0 180,0 181,0 182,0 183,0 184,0 185,0 186,0 187,0 188,0 189,0 190,0 191,0 192,0 193,0 194,0 195,0 196,0 197,0 198,0 199,0 200,0 201,0 202,0 203,0 204,0 205,0 206,0 207,0 208,0 209,0 210,0 211,0 212,0 213,0 214,0 215,0 216,0 217,0 218,0 219,0 220,0 221,0 222,0 223,0 224,0 225,0 226,0 227,0 228,0 229,0 230,0 231,0 232,0 233,0 234,0 235,0 236,0 237,0 238,0 239,0 240,0 241,0 242,0 243,0 244,0 245,0 246,0 247,0 248,0 249,0 250,0 251,0 252,0 253,0 254,0 255,0 256,0 257,0 258,0 259,0 260,0 261,0 262,0 263,0 264,0 265,0 266,0 267,0 268,0 269,0 270,0 271,0 272,0 273,0 274,0 275,0 276,0 277,0 278,0 279,0 280,0 281,0 282,0 283,0 284,0 285,0 286,0 287,0 288,0 289,0 290,0 291,0 292,0 293,0 294,0 295,0 296,0 297,0 298,0 299,0 300,0 301,0 302,0 303,0 304,0 305,0 306,0 307,0 308,0 309,0 310,0 311,0 312,0 313,0 314,0 315,0 316,0 317,0 318,0 319,0 320,0 321,0 322,0 323,0 324,0 325,0 326,0 327,0 328,0 329,0 330,0 331,0 332,0 333,0 334,0 335,0 336,0 337,0 338,0 339,0 340,0 341,0 342,0 343,0 344,0 345,0 346,0 347,0 348,0 349,0 350,0 351,0 352,0 353,0 354,0 355,0 356,0 357,0 358,0 359,0 360,0 361,0 362,0 363,0 364,0 365,0 366,0 367,0 368,0 369,0 370,0 371,0 372,0 373,0 374,0 375,0 376,0 377,0 378,0 379,0 380,0 381,0 382,0 383,0 384,0 385,0 386,0 387,0 388,0 389,0 390,0 391,0 392,0 393,0 394,0 395,0 " />
	<!-- Voltage -->
	<polyline style="fill:none;stroke:blue;clip-path:url(#GraphRegion)" points="85,119 86,119 87,119 88,119 89,119 90,119 91,119 92,119 93,120 94,120 95,120 96,120 97,119 98,119 99,119 100,119 101,119 102,119 103,119 104,119 105,119 106,119 107,119 108,119 109,119 110,120 111,120 112,120 113,119 114,119 115,120 116,120 117,120 118,120 119,119 120,119 121,119 122,120 123,119 124,120 125,120 126,120 127,119 128,120 129,120 130,119 131,120 132,120 133,120 134,120 135,120 136,120 137,119 138,120 139,119 140,119 141,119 142,119 143,119 144,119 145,119 146,120 147,120 148,119 149,119 150,120 151,120 152,120 153,120 154,119 155,119 156,119 157,119 158,120 159,120 160,120 161,119 162,119 163,119 164,119 165,119 166,119 167,119 168,119 169,119 170,119 171,120 172,119 173,119 174,119 175,119 176,119 177,119 178,119 179,119 180,119 181,118 182,119 183,118 184,119 185,119 186,119 187,119 188,119 189,119 190,118 191,119 192,118 193,118 194,118 195,118 196,118 197,118 198,118 199,118 200,118 201,119 202,119 203,118 204,118 205,119 206,119 207,119 208,119 209,119 210,118 211,119 212,119 213,119 214,119 215,119 216,119 217,119 218,119 219,119 220,119 221,119 222,119 223,119 224,118 225,119 226,119 227,119 228,119 229,119 230,119 231,120 232,119 233,119 234,120 235,119 236,119 237,119 238,119 239,120 240,120 241,119 242,119 243,119 244,119 245,119 246,118 247,119 248,119 249,120 250,120 251,120 252,120 253,119 254,119 255,119 256,119 257,119 258,118 259,119 260,119 261,119 262,118 263,119 264,118 265,119 266,119 267,118 268,118 269,118 270,118 271,119 272,118 273,119 274,119 275,119 276,119 277,119 278,120 279,119 280,119 281,119 282,119 283,119 284,119 285,119 286,119 287,119 288,119 289,119 290,119 291,119 292,119 293,119 294,119 295,119 296,119 297,119 298,119 299,119 300,119 301,119 302,119 303,119 304,119 305,119 306,119 307,119 308,120 309,119 310,119 311,119 312,120 313,119 314,119 315,119 316,120 317,119 318,119 319,119 320,119 321,119 322,119 323,120 324,120 325,119 326,119 327,119 328,120 329,120 330,120 331,119 332,119 333,119 334,119 335,120 336,120 337,120 338,120 339,120 340,120 341,120 342,120 343,120 344,119 345,119 346,119 347,119 348,120 349,121 350,120 351,120 352,120 353,120 354,120 355,120 356,120 357,120 358,120 359,120 360,120 361,120 362,120 363,120 364,120 365,120 366,120 367,120 368,120 369,120 370,120 371,120 372,120 373,120 374,120 375,120 376,120 377,120 378,120 379,120 380,119 381,120 382,120 383,120 384,120 385,120 386,120 387,120 388,119 389,119 390,120 391,120 392,120 393,120 394,120 395,120 " />
	<!-- Voltage -->
	<polyline style="fill:none;stroke:aqua;clip-path:url(#GraphRegion)" points="85,19 86,22 87,19 88,20 89,20 90,19 91,17 92,16 93,18 94,20 95,19 96,18 97,17 98,20 99,19 100,20 101,20 102,22 103,21 104,20 105,19 106,19 107,19 108,20 109,19 110,20 111,19 112,20 113,20 114,19 115,19 116,20 117,21 118,20 119,20 120,20 121,20 122,20 123,20 124,20 125,20 126,20 127,20 128,20 129,20 130,20 131,20 132,21 133,19 134,19 135,20 136,21 137,20 138,19 139,20 140,20 141,20 142,19 143,20 144,20 145,20 146,20 147,20 148,20 149,20 150,21 151,20 152,20 153,20 154,20 155,21 156,21 157,20 158,21 159,21 160,21 161,19 162,18 163,19 164,18 165,18 166,19 167,19 168,20 169,20 170,20 171,19 172,19 173,19 174,20 175,20 176,20 177,19 178,19 179,18 180,19 181,20 182,20 183,20 184,20 185,20 186,19 187,19 188,20 189,20 190,20 191,20 192,18 193,19 194,19 195,19 196,20 197,19 198,19 199,19 200,20 201,19 202,20 203,19 204,18 205,19 206,19 207,20 208,21 209,19 210,17 211,15 212,17 213,24 214,23 215,21 216,19 217,19 218,21 219,21 220,21 221,22 222,21 223,19 224,19 225,19 226,20 227,20 228,20 229,19 230,20 231,21 232,20 233,20 234,20 235,20 236,20 237,20 238,19 239,19 240,20 241,20 242,19 243,20 244,20 245,20 246,20 247,21 248,20 249,21 250,20 251,20 252,20 253,21 254,21 255,21 256,21 257,21 258,19 259,18 260,17 261,17 262,19 263,21 264,21 265,22 266,22 267,21 268,20 269,17 270,15 271,17 272,24 273,22 274,19 275,18 276,19 277,19 278,18 279,17 280,18 281,20 282,21 283,19 284,20 285,20 286,20 287,19 288,18 289,18 290,17 291,17 292,17 293,17 294,19 295,21 296,22 297,21 298,20 299,20 300,20 301,19 302,19 303,17 304,18 305,17 306,19 307,21 308,22 309,23 310,23 311,21 312,19 313,18 314,18 315,18 316,19 317,20 318,21 319,21 320,22 321,23 322,21 323,20 324,17 325,15 326,22 327,24 328,22 329,17 330,14 331,23 332,24 333,20 334,18 335,17 336,17 337,22 338,21 339,19 340,17 341,18 342,19 343,19 344,20 345,20 346,18 347,19 348,19 349,21 350,20 351,21 352,21 353,20 354,18 355,18 356,19 357,22 358,24 359,22 360,21 361,21 362,19 363,19 364,19 365,18 366,19 367,19 368,19 369,18 370,18 371,18 372,20 373,19 374,20 375,21 376,21 377,22 378,22 379,22 380,20 381,20 382,20 383,21 384,21 385,21 386,21 387,21 388,21 389,21 390,20 391,20 392,21 393,22 394,20 395,20 " />
</svg>
