<?xml version="1.0" encoding="utf-8" standalone="no"?>
<svg xmlns="http://www.w3.org/2000/svg" xmlns:xlink="http://www.w3.org/1999/xlink" width="500" height="135">
	<!-- Created by: VictronBTLELogger Version 3.20241121.0 Built on: Nov 21 2024 at 17:26:13 -->
	<clipPath id="GraphRegion"><polygon points="80,14 472,14 472,121 80,121" /></clipPath>
	<style>
		text { font-family: sans-serif; font-size: 12px; fill: dimgrey; }
		line { stroke: dimgrey; }
		polygon { fill-opacity: 0.5; }
	</style>
	<rect style="fill-opacity:0;stroke:grey;stroke-width:2" width="500" height="135" />
	<text x="80" y="12">S/V Sola Orion XS (D3:D1:90:54:EB:F0)</text>
	<text style="text-anchor:end" x="472" y="12">2024-11-23 00:00:00</text>
	<text style="fill:blue;text-anchor:middle" x="12" y="50%" transform="rotate(270 12,67)">Voltage In (12.83V)</text>
	<text style="fill:aqua;text-anchor:middle" x="24" y="50%" transform="rotate(270 24,67)">Voltage Out (13.44V)</text>
	<text style="fill:green;text-anchor:middle" x="36" y="50%" transform="rotate(270 36,67)">Current In (0.0A)</text>
	<text style="fill:lime;text-anchor:middle" x="48" y="50%" transform="rotate(270 48,67)">Current Out (0.0A)</text>
	<line x1="78" y1="14" x2="474" y2="14"/>
	<text style="fill:blue;text-anchor:end;dominant-baseline:middle" x="78" y="14">13.44</text>
	<text style="fill:green;dominant-baseline:middle" x="474" y="14">0.0</text>
	<line x1="78" y1="121" x2="474" y2="121"/>
	<text style="fill:blue;text-anchor:end;dominant-baseline:middle" x="78" y="121">12.83</text>
	<text style="fill:green;dominant-baseline:middle" x="474" y="121">0.0</text>
	<line x1="80" y1="14" x2="80" y2="121"/>
	<line x1="472" y1="14" x2="472" y2="121"/>
	<line style="stroke-dasharray:1" x1="78" y1="40" x2="474" y2="40" />
	<text style="fill:blue;text-anchor:end;dominant-baseline:middle" x="78" y="40">13.29</text>
	<text style="fill:green;dominant-baseline:middle" x="474" y="40">0.0</text>
	<line style="stroke-dasharray:1" x1="78" y1="66" x2="474" y2="66" />
	<text style="fill:blue;text-anchor:end;dominant-baseline:middle" x="78" y="66">13.13</text>
	<text style="fill:green;dominant-baseline:middle" x="474" y="66">0.0</text>
	<line style="stroke-dasharray:1" x1="78" y1="92" x2="474" y2="92" />
	<text style="fill:blue;text-anchor:end;dominant-baseline:middle" x="78" y="92">12.98</text>
	<text style="fill:green;dominant-baseline:middle" x="474" y="92">0.0</text>
	<polygon style="fill:red;stroke:red;fill-opacity:1;" points="77,121 83,118 83,124" />
	<!-- Amperage -->
	<polyline style="fill:none;stroke:green;clip-path:url(#GraphRegion)" points="81,0 82,0 83,0 84,0 85,0 86,0 " />
	<!-- Amperage -->
	<polyline style="fill:none;stroke:lime;clip-path:url(#GraphRegion)" points="81,0 82,0 83,0 84,0 85,0 86,0 " />
	<!-- Voltage -->
	<polyline style="fill:none;stroke:blue;clip-path:url(#GraphRegion)" points="81,120 82,121 83,119 84,119 85,120 86,119 " />
	<!-- Voltage -->
	<polyline style="fill:none;stroke:aqua;clip-path:url(#GraphRegion)" points="81,15 82,15 83,15 84,14 85,15 86,15 " />
</svg>
