<?xml version="1.0" encoding="utf-8" standalone="no"?>
<svg xmlns="http://www.w3.org/2000/svg" xmlns:xlink="http://www.w3.org/1999/xlink" width="500" height="135">
	<!-- Created by: VictronBTLELogger Version 3.20240907.5 Built on: Sep  7 2024 at 18:45:45 -->
	<clipPath id="GraphRegion"><polygon points="54,14 470,14 470,121 54,121" /></clipPath>
	<style>
		text { font-family: sans-serif; font-size: 12px; fill: black; }
		line { stroke: black; }
		polygon { fill-opacity: 0.5; }
	</style>
	<rect style="fill-opacity:0;stroke:grey;stroke-width:2" width="500" height="135" />
	<text x="54" y="12">S/V Sola Battery 1 (CE:A5:D7:7B:CD:81)</text>
	<text style="text-anchor:end" x="470" y="12">2024-09-07 18:59:58</text>
	<text style="fill:blue;text-anchor:middle" x="12" y="50%" transform="rotate(270 12,67)">Temperature (79.7°F)</text>
	<text style="fill:green;text-anchor:middle" x="24" y="50%" transform="rotate(270 24,67)">Voltage (13.52V)</text>
	<line x1="52" y1="14" x2="472" y2="14"/>
	<text style="fill:blue;text-anchor:end;dominant-baseline:middle" x="52" y="14">82.4</text>
	<text style="fill:green;dominant-baseline:middle" x="472" y="14">13.5</text>
	<line x1="52" y1="121" x2="472" y2="121"/>
	<text style="fill:blue;text-anchor:end;dominant-baseline:middle" x="52" y="121">76.8</text>
	<text style="fill:green;dominant-baseline:middle" x="472" y="121">3.4</text>
	<line x1="54" y1="14" x2="54" y2="121"/>
	<line x1="470" y1="14" x2="470" y2="121"/>
	<line style="stroke-dasharray:1" x1="52" y1="40" x2="472" y2="40" />
	<text style="fill:blue;text-anchor:end;dominant-baseline:middle" x="52" y="40">81.0</text>
	<text style="fill:green;dominant-baseline:middle" x="472" y="40">11.0</text>
	<line style="stroke-dasharray:1" x1="52" y1="66" x2="472" y2="66" />
	<text style="fill:blue;text-anchor:end;dominant-baseline:middle" x="52" y="66">79.6</text>
	<text style="fill:green;dominant-baseline:middle" x="472" y="66">8.4</text>
	<line style="stroke-dasharray:1" x1="52" y1="92" x2="472" y2="92" />
	<text style="fill:blue;text-anchor:end;dominant-baseline:middle" x="52" y="92">78.2</text>
	<text style="fill:green;dominant-baseline:middle" x="472" y="92">5.9</text>
	<line style="stroke-dasharray:1" x1="65" y1="14" x2="65" y2="123" />
	<text style="text-anchor:middle" x="65" y="133">18</text>
	<line style="stroke-dasharray:1" x1="77" y1="14" x2="77" y2="123" />
	<line style="stroke-dasharray:1" x1="89" y1="14" x2="89" y2="123" />
	<text style="text-anchor:middle" x="89" y="133">16</text>
	<line style="stroke-dasharray:1" x1="101" y1="14" x2="101" y2="123" />
	<line style="stroke-dasharray:1" x1="113" y1="14" x2="113" y2="123" />
	<text style="text-anchor:middle" x="113" y="133">14</text>
	<line style="stroke-dasharray:1" x1="125" y1="14" x2="125" y2="123" />
	<line style="stroke-dasharray:1" x1="137" y1="14" x2="137" y2="123" />
	<text style="text-anchor:middle" x="137" y="133">12</text>
	<line style="stroke-dasharray:1" x1="149" y1="14" x2="149" y2="123" />
	<line style="stroke-dasharray:1" x1="161" y1="14" x2="161" y2="123" />
	<text style="text-anchor:middle" x="161" y="133">10</text>
	<line style="stroke-dasharray:1" x1="173" y1="14" x2="173" y2="123" />
	<line style="stroke-dasharray:1" x1="185" y1="14" x2="185" y2="123" />
	<text style="text-anchor:middle" x="185" y="133">8</text>
	<line style="stroke-dasharray:1" x1="197" y1="14" x2="197" y2="123" />
	<line style="stroke-dasharray:1" x1="209" y1="14" x2="209" y2="123" />
	<text style="text-anchor:middle" x="209" y="133">6</text>
	<line style="stroke-dasharray:1" x1="221" y1="14" x2="221" y2="123" />
	<line style="stroke-dasharray:1" x1="233" y1="14" x2="233" y2="123" />
	<text style="text-anchor:middle" x="233" y="133">4</text>
	<line style="stroke-dasharray:1" x1="245" y1="14" x2="245" y2="123" />
	<line style="stroke-dasharray:1" x1="257" y1="14" x2="257" y2="123" />
	<text style="text-anchor:middle" x="257" y="133">2</text>
	<line style="stroke-dasharray:1" x1="269" y1="14" x2="269" y2="123" />
	<line style="stroke:red" x1="281" y1="14" x2="281" y2="123" />
	<text style="text-anchor:middle" x="281" y="133">0</text>
	<line style="stroke-dasharray:1" x1="293" y1="14" x2="293" y2="123" />
	<line style="stroke-dasharray:1" x1="305" y1="14" x2="305" y2="123" />
	<text style="text-anchor:middle" x="305" y="133">22</text>
	<line style="stroke-dasharray:1" x1="317" y1="14" x2="317" y2="123" />
	<line style="stroke-dasharray:1" x1="329" y1="14" x2="329" y2="123" />
	<text style="text-anchor:middle" x="329" y="133">20</text>
	<line style="stroke-dasharray:1" x1="341" y1="14" x2="341" y2="123" />
	<line style="stroke-dasharray:1" x1="353" y1="14" x2="353" y2="123" />
	<text style="text-anchor:middle" x="353" y="133">18</text>
	<line style="stroke-dasharray:1" x1="365" y1="14" x2="365" y2="123" />
	<polygon style="fill:red;stroke:red;fill-opacity:1;" points="51,121 57,118 57,124" />
	<!-- Temperature -->
	<polyline style="fill:none;stroke:blue;clip-path:url(#GraphRegion)" points="55,77 56,48 57,48 58,48 59,48 60,48 61,48 62,48 63,48 64,48 65,48 66,48 67,48 68,48 69,48 70,48 71,48 72,48 73,48 74,48 75,58 76,58 77,82 78,82 79,82 80,82 81,82 82,82 83,82 84,82 85,82 86,82 87,82 88,82 89,82 90,82 91,82 92,82 93,82 94,82 95,82 96,82 97,82 98,82 99,82 100,82 101,82 102,82 103,82 104,82 105,82 106,82 107,82 108,82 109,82 110,82 111,82 112,82 113,82 114,82 115,82 116,82 117,82 118,82 119,82 120,82 121,82 122,82 123,82 124,82 125,82 126,82 127,82 128,82 129,82 130,82 131,82 132,82 133,82 134,82 135,82 136,93 137,116 138,116 139,116 140,116 141,116 142,116 143,116 144,116 145,116 146,116 147,116 148,116 149,116 150,116 151,116 152,116 153,116 154,116 155,116 156,116 157,116 158,116 159,116 160,116 161,116 162,116 163,116 164,116 165,116 166,116 167,116 168,116 169,116 170,116 171,116 172,116 173,116 174,116 175,116 176,116 177,116 178,116 179,116 180,116 181,116 182,116 183,121 184,87 185,82 186,82 187,82 188,82 189,82 190,82 191,82 192,82 193,82 194,82 195,82 196,82 197,82 198,82 199,82 200,82 201,82 202,82 203,82 204,82 205,82 206,82 207,82 208,82 209,82 210,82 211,82 212,82 213,82 214,82 215,82 216,82 217,82 218,82 219,82 220,82 221,82 222,82 223,82 224,82 225,82 226,82 227,82 228,82 229,82 230,82 231,82 232,82 233,82 234,82 235,82 236,82 237,82 238,82 239,82 240,82 241,82 242,82 243,82 244,82 245,82 246,82 247,48 248,48 249,48 250,48 251,48 252,48 253,48 254,48 255,48 256,48 257,48 258,48 259,48 260,48 261,48 262,48 263,48 264,48 265,48 266,48 267,48 268,48 269,48 270,48 271,48 272,48 273,48 274,48 275,48 276,48 277,48 278,48 279,48 280,48 281,48 282,48 283,48 284,48 285,48 286,48 287,48 288,48 289,48 290,48 291,48 292,48 293,48 294,48 295,48 296,48 297,18 298,18 299,18 300,18 301,18 302,18 303,18 304,18 305,18 306,18 307,18 308,14 309,14 310,14 311,14 312,14 313,14 314,14 315,14 316,14 317,14 318,14 319,14 320,14 321,14 322,14 323,14 324,14 325,14 326,14 327,14 328,14 329,14 330,14 331,14 332,14 333,14 334,14 335,14 336,14 337,14 338,14 339,14 340,14 341,14 342,14 343,14 344,14 345,14 346,14 347,14 348,14 349,48 350,48 351,48 352,48 353,48 354,48 355,48 356,48 357,48 358,48 359,48 360,48 361,48 362,48 363,48 364,48 365,48 " />
	<!-- Voltage -->
	<polyline style="fill:lime;stroke:green;clip-path:url(#GraphRegion)" points="55,14 56,14 57,14 58,14 59,14 60,14 61,14 62,14 63,14 64,14 65,14 66,14 67,14 68,14 69,14 70,14 71,14 72,14 73,14 74,14 75,14 76,14 77,14 78,14 79,14 80,14 81,14 82,14 83,14 84,14 85,14 86,14 87,14 88,14 89,14 90,14 91,14 92,14 93,14 94,14 95,14 96,14 97,14 98,14 99,14 100,14 101,14 102,14 103,14 104,14 105,14 106,14 107,14 108,14 109,14 110,14 111,14 112,14 113,14 114,14 115,14 116,14 117,14 118,14 119,14 120,14 121,14 122,14 123,14 124,14 125,14 126,14 127,14 128,14 129,14 130,14 131,14 132,14 133,14 134,14 135,14 136,14 137,14 138,14 139,14 140,14 141,14 142,14 143,14 144,14 145,14 146,14 147,14 148,14 149,14 150,14 151,14 152,14 153,14 154,14 155,14 156,14 157,14 158,14 159,14 160,14 161,14 162,14 163,14 164,14 165,14 166,14 167,14 168,14 169,14 170,14 171,14 172,14 173,14 174,14 175,14 176,14 177,14 178,14 179,14 180,14 181,14 182,14 183,14 184,14 185,14 186,14 187,14 188,14 189,14 190,14 191,14 192,14 193,14 194,14 195,14 196,14 197,14 198,14 199,14 200,14 201,14 202,14 203,14 204,14 205,14 206,14 207,14 208,14 209,14 210,14 211,14 212,14 213,14 214,14 215,14 216,14 217,14 218,14 219,14 220,14 221,14 222,14 223,14 224,14 225,14 226,14 227,14 228,14 229,14 230,14 231,14 232,14 233,14 234,14 235,14 236,14 237,14 238,14 239,14 240,14 241,14 242,14 243,14 244,14 245,14 246,14 247,14 248,14 249,14 250,14 251,14 252,14 253,14 254,14 255,14 256,14 257,14 258,14 259,14 260,14 261,14 262,14 263,14 264,14 265,14 266,14 267,14 268,14 269,14 270,14 271,14 272,14 273,14 274,14 275,14 276,14 277,14 278,14 279,14 280,14 281,14 282,14 283,14 284,14 285,14 286,14 287,14 288,14 289,14 290,14 291,14 292,14 293,14 294,14 295,14 296,14 297,14 298,14 299,14 300,14 301,14 302,14 303,14 304,14 305,14 306,14 307,14 308,14 309,14 310,14 311,14 312,14 313,14 314,14 315,14 316,14 317,14 318,14 319,14 320,14 321,14 322,14 323,14 324,14 325,14 326,14 327,14 328,14 329,14 330,14 331,14 332,14 333,14 334,14 335,14 336,14 337,14 338,14 339,14 340,14 341,14 342,14 343,14 344,14 345,14 346,14 347,14 348,14 349,14 350,14 351,14 352,14 353,14 354,14 355,14 356,14 357,14 358,14 359,14 360,14 361,14 362,14 363,14 364,14 365,14 " />
	<!-- Cell 0 Voltage -->
	<polyline style="fill:lime;stroke:green;clip-path:url(#GraphRegion)" points="55,120 56,120 57,120 58,120 59,120 60,120 61,120 62,120 63,120 64,120 65,120 66,120 67,120 68,120 69,120 70,120 71,120 72,120 73,120 74,120 75,120 76,120 77,120 78,120 79,120 80,120 81,120 82,120 83,120 84,120 85,120 86,120 87,120 88,120 89,120 90,120 91,120 92,120 93,120 94,120 95,120 96,120 97,120 98,120 99,120 100,120 101,120 102,120 103,120 104,120 105,120 106,120 107,120 108,120 109,120 110,120 111,120 112,120 113,120 114,120 115,120 116,120 117,120 118,120 119,120 120,120 121,120 122,120 123,120 124,120 125,120 126,120 127,120 128,120 129,120 130,120 131,120 132,120 133,120 134,120 135,120 136,120 137,120 138,120 139,120 140,120 141,120 142,120 143,120 144,120 145,120 146,120 147,120 148,120 149,120 150,120 151,120 152,120 153,120 154,120 155,120 156,120 157,120 158,120 159,120 160,120 161,120 162,120 163,120 164,120 165,120 166,120 167,120 168,120 169,120 170,120 171,120 172,120 173,120 174,120 175,120 176,120 177,120 178,120 179,120 180,120 181,120 182,120 183,121 184,120 185,120 186,120 187,120 188,120 189,120 190,120 191,120 192,120 193,120 194,120 195,120 196,120 197,120 198,120 199,120 200,120 201,120 202,120 203,120 204,120 205,120 206,120 207,120 208,120 209,120 210,120 211,120 212,120 213,120 214,120 215,120 216,120 217,120 218,120 219,120 220,120 221,120 222,120 223,120 224,120 225,120 226,120 227,120 228,120 229,120 230,120 231,120 232,120 233,120 234,120 235,120 236,120 237,120 238,120 239,120 240,120 241,120 242,120 243,120 244,120 245,120 246,120 247,120 248,120 249,120 250,120 251,120 252,120 253,120 254,120 255,120 256,120 257,120 258,120 259,120 260,120 261,120 262,120 263,120 264,120 265,120 266,120 267,120 268,120 269,120 270,120 271,120 272,120 273,120 274,120 275,120 276,120 277,120 278,120 279,120 280,120 281,120 282,120 283,120 284,120 285,120 286,120 287,120 288,120 289,120 290,120 291,120 292,120 293,120 294,120 295,120 296,120 297,120 298,120 299,120 300,120 301,120 302,120 303,120 304,120 305,120 306,120 307,120 308,120 309,120 310,120 311,120 312,120 313,120 314,120 315,120 316,120 317,120 318,120 319,120 320,120 321,120 322,120 323,120 324,120 325,120 326,120 327,120 328,120 329,120 330,120 331,120 332,120 333,120 334,120 335,120 336,120 337,120 338,120 339,120 340,120 341,120 342,120 343,120 344,120 345,120 346,120 347,120 348,120 349,120 350,120 351,120 352,120 353,120 354,120 355,120 356,120 357,120 358,120 359,120 360,120 361,120 362,120 363,120 364,120 365,120 " />
	<!-- Cell 1 Voltage -->
	<polyline style="fill:lime;stroke:green;clip-path:url(#GraphRegion)" points="55,120 56,120 57,120 58,120 59,120 60,120 61,120 62,120 63,120 64,120 65,120 66,120 67,120 68,120 69,120 70,120 71,120 72,120 73,120 74,120 75,120 76,120 77,120 78,120 79,120 80,120 81,120 82,120 83,120 84,120 85,120 86,120 87,120 88,120 89,120 90,120 91,120 92,120 93,120 94,120 95,120 96,120 97,120 98,120 99,120 100,120 101,120 102,120 103,120 104,120 105,120 106,120 107,120 108,120 109,120 110,120 111,120 112,120 113,120 114,120 115,120 116,120 117,120 118,120 119,120 120,120 121,120 122,120 123,120 124,120 125,120 126,120 127,120 128,120 129,120 130,120 131,120 132,120 133,120 134,120 135,120 136,120 137,120 138,120 139,120 140,120 141,120 142,120 143,120 144,120 145,120 146,120 147,120 148,120 149,120 150,120 151,120 152,120 153,120 154,120 155,120 156,120 157,120 158,120 159,120 160,120 161,120 162,120 163,120 164,120 165,120 166,120 167,120 168,120 169,120 170,120 171,120 172,120 173,120 174,120 175,120 176,120 177,120 178,120 179,120 180,120 181,120 182,120 183,121 184,120 185,120 186,120 187,120 188,120 189,120 190,120 191,120 192,120 193,120 194,120 195,120 196,120 197,120 198,120 199,120 200,120 201,120 202,120 203,120 204,120 205,120 206,120 207,120 208,120 209,120 210,120 211,120 212,120 213,120 214,120 215,120 216,120 217,120 218,120 219,120 220,120 221,120 222,120 223,120 224,120 225,120 226,120 227,120 228,120 229,120 230,120 231,120 232,120 233,120 234,120 235,120 236,120 237,120 238,120 239,120 240,120 241,120 242,120 243,120 244,120 245,120 246,120 247,120 248,120 249,120 250,120 251,120 252,120 253,120 254,120 255,120 256,120 257,120 258,120 259,120 260,120 261,120 262,120 263,120 264,120 265,120 266,120 267,120 268,120 269,120 270,120 271,120 272,120 273,120 274,120 275,120 276,120 277,120 278,120 279,120 280,120 281,120 282,120 283,120 284,120 285,120 286,120 287,120 288,120 289,120 290,120 291,120 292,120 293,120 294,120 295,120 296,120 297,120 298,120 299,120 300,120 301,120 302,120 303,120 304,120 305,120 306,120 307,120 308,120 309,120 310,120 311,120 312,120 313,120 314,120 315,120 316,120 317,120 318,120 319,120 320,120 321,120 322,120 323,120 324,120 325,120 326,120 327,120 328,120 329,120 330,120 331,120 332,120 333,120 334,120 335,120 336,120 337,120 338,120 339,120 340,120 341,120 342,120 343,120 344,120 345,120 346,120 347,120 348,120 349,120 350,120 351,120 352,120 353,120 354,120 355,120 356,120 357,120 358,120 359,120 360,120 361,120 362,120 363,120 364,120 365,120 " />
	<!-- Cell 2 Voltage -->
	<polyline style="fill:lime;stroke:green;clip-path:url(#GraphRegion)" points="55,120 56,120 57,120 58,120 59,120 60,120 61,120 62,120 63,120 64,120 65,120 66,120 67,120 68,120 69,120 70,120 71,120 72,120 73,120 74,120 75,120 76,120 77,120 78,120 79,120 80,120 81,120 82,120 83,120 84,120 85,120 86,120 87,120 88,120 89,120 90,120 91,120 92,120 93,120 94,120 95,120 96,120 97,120 98,120 99,120 100,120 101,120 102,120 103,120 104,120 105,120 106,120 107,120 108,120 109,120 110,120 111,120 112,120 113,120 114,120 115,120 116,120 117,120 118,120 119,120 120,120 121,120 122,120 123,120 124,120 125,120 126,120 127,120 128,120 129,120 130,120 131,120 132,120 133,120 134,120 135,120 136,120 137,120 138,120 139,120 140,120 141,120 142,120 143,120 144,120 145,120 146,120 147,120 148,120 149,120 150,120 151,120 152,120 153,120 154,120 155,120 156,120 157,120 158,120 159,120 160,120 161,120 162,120 163,120 164,120 165,120 166,120 167,120 168,120 169,120 170,120 171,120 172,120 173,120 174,120 175,120 176,120 177,120 178,120 179,120 180,120 181,120 182,120 183,121 184,120 185,120 186,120 187,120 188,120 189,120 190,120 191,120 192,120 193,120 194,120 195,120 196,120 197,120 198,120 199,120 200,120 201,120 202,120 203,120 204,120 205,120 206,120 207,120 208,120 209,120 210,120 211,120 212,120 213,120 214,120 215,120 216,120 217,120 218,120 219,120 220,120 221,120 222,120 223,120 224,120 225,120 226,120 227,120 228,120 229,120 230,120 231,120 232,120 233,120 234,120 235,120 236,120 237,120 238,120 239,120 240,120 241,120 242,120 243,120 244,120 245,120 246,120 247,120 248,120 249,120 250,120 251,120 252,120 253,120 254,120 255,120 256,120 257,120 258,120 259,120 260,120 261,120 262,120 263,120 264,120 265,120 266,120 267,120 268,120 269,120 270,120 271,120 272,120 273,120 274,120 275,120 276,120 277,120 278,120 279,120 280,120 281,120 282,120 283,120 284,120 285,120 286,120 287,120 288,120 289,120 290,120 291,120 292,120 293,120 294,120 295,120 296,120 297,120 298,120 299,120 300,120 301,120 302,120 303,120 304,120 305,120 306,120 307,120 308,120 309,120 310,120 311,120 312,120 313,120 314,120 315,120 316,120 317,120 318,120 319,120 320,120 321,120 322,120 323,120 324,120 325,120 326,120 327,120 328,120 329,120 330,120 331,120 332,120 333,120 334,120 335,120 336,120 337,120 338,120 339,120 340,120 341,120 342,120 343,120 344,120 345,120 346,120 347,120 348,120 349,120 350,120 351,120 352,120 353,120 354,120 355,120 356,120 357,120 358,120 359,120 360,120 361,120 362,120 363,120 364,120 365,120 " />
</svg>
