<?xml version="1.0" encoding="utf-8" standalone="no"?>
<svg xmlns="http://www.w3.org/2000/svg" xmlns:xlink="http://www.w3.org/1999/xlink" width="500" height="135">
	<!-- Created by: VictronBTLELogger Version 3.20241123.0 Built on: Nov 23 2024 at 11:31:55 -->
	<clipPath id="GraphRegion"><polygon points="80,14 472,14 472,121 80,121" /></clipPath>
	<style>
		text { font-family: sans-serif; font-size: 12px; fill: dimgrey; }
		line { stroke: dimgrey; }
		polygon { fill-opacity: 0.5; }
	</style>
	<rect style="fill-opacity:0;stroke:grey;stroke-width:2" width="500" height="135" />
	<text x="80" y="12">S/V Sola Battery 1 (CE:A5:D7:7B:CD:81)</text>
	<text style="text-anchor:end" x="472" y="12">2024-11-23 00:00:00</text>
	<text style="fill:blue;text-anchor:middle" x="12" y="50%" transform="rotate(270 12,67)">Temperature (65.1°F)</text>
	<text style="fill:green;text-anchor:middle" x="24" y="50%" transform="rotate(270 24,67)">Voltage (13.49V)</text>
	<text style="fill:green;text-anchor:middle" x="36" y="50%" transform="rotate(270 36,67)">(3.37V) (3.37V)</text>
	<text style="fill:green;text-anchor:middle" x="48" y="50%" transform="rotate(270 48,67)">(3.37V) (3.37V)</text>
	<line x1="78" y1="14" x2="474" y2="14"/>
	<text style="fill:blue;text-anchor:end;dominant-baseline:middle" x="78" y="14">76.4</text>
	<text style="fill:green;dominant-baseline:middle" x="474" y="14">13.5</text>
	<line x1="78" y1="121" x2="474" y2="121"/>
	<text style="fill:blue;text-anchor:end;dominant-baseline:middle" x="78" y="121">63.4</text>
	<text style="fill:green;dominant-baseline:middle" x="474" y="121">3.4</text>
	<line x1="80" y1="14" x2="80" y2="121"/>
	<line x1="472" y1="14" x2="472" y2="121"/>
	<line style="stroke-dasharray:1" x1="78" y1="40" x2="474" y2="40" />
	<text style="fill:blue;text-anchor:end;dominant-baseline:middle" x="78" y="40">73.1</text>
	<text style="fill:green;dominant-baseline:middle" x="474" y="40">11.0</text>
	<line style="stroke-dasharray:1" x1="78" y1="66" x2="474" y2="66" />
	<text style="fill:blue;text-anchor:end;dominant-baseline:middle" x="78" y="66">69.9</text>
	<text style="fill:green;dominant-baseline:middle" x="474" y="66">8.4</text>
	<line style="stroke-dasharray:1" x1="78" y1="92" x2="474" y2="92" />
	<text style="fill:blue;text-anchor:end;dominant-baseline:middle" x="78" y="92">66.6</text>
	<text style="fill:green;dominant-baseline:middle" x="474" y="92">5.9</text>
	<text style="text-anchor:middle" x="88" y="133">Nov</text>
	<line style="stroke-dasharray:1" x1="102" y1="14" x2="102" y2="123" />
	<text style="text-anchor:middle" x="119" y="133">Oct</text>
	<polygon style="fill:red;stroke:red;fill-opacity:1;" points="77,121 83,118 83,124" />
	<!-- Temperature -->
	<polyline style="fill:none;stroke:blue;clip-path:url(#GraphRegion)" points="81,111 82,115 83,121 84,106 85,92 86,104 87,91 88,84 89,83 90,83 91,83 92,83 93,83 94,83 95,83 96,45 97,39 98,39 99,39 100,39 101,39 102,39 103,39 104,39 105,39 106,39 107,39 108,39 109,39 110,39 111,39 112,39 113,39 114,39 115,39 116,39 117,39 118,39 119,39 120,39 121,62 122,61 123,43 124,29 125,14 " />
	<!-- Voltage -->
	<polyline style="fill:lime;stroke:green;clip-path:url(#GraphRegion)" points="81,14 82,14 83,14 84,14 85,14 86,14 87,14 88,14 89,14 90,14 91,14 92,14 93,14 94,14 95,14 96,14 97,14 98,14 99,14 100,14 101,14 102,14 103,14 104,14 105,14 106,14 107,14 108,14 109,14 110,14 111,14 112,14 113,14 114,14 115,14 116,14 117,14 118,14 119,14 120,14 121,14 122,14 123,14 124,14 125,14 " />
	<!-- Cell 0 Voltage -->
	<polyline style="fill:lime;stroke:green;clip-path:url(#GraphRegion)" points="81,120 82,120 83,121 84,120 85,120 86,120 87,120 88,120 89,120 90,120 91,120 92,120 93,120 94,120 95,120 96,120 97,120 98,120 99,120 100,120 101,120 102,120 103,120 104,120 105,120 106,120 107,120 108,120 109,120 110,120 111,120 112,120 113,120 114,120 115,120 116,120 117,120 118,120 119,120 120,120 121,120 122,120 123,120 124,120 125,120 " />
	<!-- Cell 1 Voltage -->
	<polyline style="fill:lime;stroke:green;clip-path:url(#GraphRegion)" points="81,120 82,120 83,121 84,120 85,120 86,120 87,120 88,120 89,120 90,120 91,120 92,120 93,120 94,120 95,120 96,120 97,120 98,120 99,120 100,120 101,120 102,120 103,120 104,120 105,120 106,120 107,120 108,120 109,120 110,120 111,120 112,120 113,120 114,120 115,120 116,120 117,120 118,120 119,120 120,120 121,120 122,120 123,120 124,120 125,120 " />
	<!-- Cell 2 Voltage -->
	<polyline style="fill:lime;stroke:green;clip-path:url(#GraphRegion)" points="81,120 82,120 83,121 84,120 85,120 86,120 87,120 88,120 89,120 90,120 91,120 92,120 93,120 94,120 95,120 96,120 97,120 98,120 99,120 100,120 101,120 102,120 103,120 104,120 105,120 106,120 107,120 108,120 109,120 110,120 111,120 112,120 113,120 114,120 115,120 116,120 117,120 118,120 119,120 120,120 121,120 122,120 123,120 124,120 125,120 " />
</svg>
